<svg id="Capa_1" data-name="Capa 1" xmlns="http://www.w3.org/2000/svg" viewBox="0 0 841 650"><defs><style>.cls-forest-1{fill:#a6c9af;}.cls-forest-1,.cls-forest-4,.cls-forest-7{opacity:0.8;}.cls-forest-2{fill:#905f36;}.cls-forest-3{fill:#557c63;}.cls-forest-4{fill:#a1c6ae;}.cls-forest-5{fill:#fff;}.cls-forest-6{fill:#a37858;}.cls-forest-7{fill:#74a884;}.cls-forest-8{fill:#64ad6f;}</style></defs><title>PAI CERCS</title><path class="cls-forest-1" d="M628.55,352.26a93,93,0,0,0,7.63,27.88c20.24,45.07,73.1,66.51,119,48.29A93,93,0,0,0,794,284.53a81.86,81.86,0,0,1-14.22-74,134.2,134.2,0,0,0-5.49-92C745.57,52,668.28,20.07,600.91,46.85A134.76,134.76,0,0,0,586,290.36C609.3,303.05,625.62,325.92,628.55,352.26Z"/><path class="cls-forest-2" d="M688.9,316.12l6.4,171.29a6.22,6.22,0,0,1-6,6.43l-5.86.22a6.21,6.21,0,0,1-6.44-6.39l5.3-171.57a6,6,0,0,1,1.21-3.49c.91-1.17,2.29-2.06,4-.2A5.85,5.85,0,0,1,688.9,316.12Z"/><path class="cls-forest-3" d="M696,340.17c-11.32,12.82-26.42,23-43.34,25.44s-35.58-3.8-45.31-17.86-8-35.74,5.54-46.18C599.41,298.85,588.82,285.71,589,272s11.17-26.57,24.73-28.89,28.17,6.1,32.94,19c-3-20.24,13.44-42.71,33.89-43s38.68,20,36.23,40.33c11.67-11.38,29.73-17,44.92-11.08s24.86,25,18,39.76c11.19-4.56,25.42.69,31,11.41s1.64,25.38-8.53,31.9-25.12,4-32.54-5.57a42,42,0,0,1-74.25,13.68"/><path class="cls-forest-4" d="M581.59,619.75c72.27-32.71,104.25-119.33,70.67-191.2A143.27,143.27,0,0,0,528.13,346.1a58.21,58.21,0,0,1-45.43-24.59,190.43,190.43,0,0,0-83.77-66.76,84.4,84.4,0,0,1-50.33-60.6,93.8,93.8,0,0,0-8.1-22.88c-21.13-41.69-70.93-61.39-114.83-45.37a93.2,93.2,0,0,0-53.38,125.48c.06.15.13.3.2.45,10.82,24,9.56,51.89-5,73.82A190.84,190.84,0,0,0,152,509C194.88,605.43,307.76,648.81,404.14,606l.57-.25a40.63,40.63,0,0,1,39.07,3.22A143.07,143.07,0,0,0,581.59,619.75Z"/><path class="cls-forest-5 animate-cloud" d="M241.3,211.24a31.47,31.47,0,0,0-10.5,1.82,61.77,61.77,0,0,0-123.32-.9A24.72,24.72,0,0,0,89.5,245H272.8c.05-.72.11-1.43.11-2.16A31.6,31.6,0,0,0,241.3,211.24Z"/><path class="cls-forest-3" d="M373.22,205.44c-2.42-10.7.84-22.79,9.14-30s21.55-8.4,30.44-2,11.62,20.36,5,29.1c12-7.79,29.92-4.43,38.3,7.2s5.92,29.66-5.27,38.62a28,28,0,0,1,15.31,50.4c15.94-2.66,33,8.45,37,24.11s-5.63,33.57-20.89,38.88c10.54,2.55,16.93,15.05,14.22,25.55s-13,18.11-23.76,19.3-21.69-3.29-29.84-10.45c-.85,11-10.24,20.66-21.18,21.86s-22.2-6.25-25.39-16.78c-4.3,11.62-17.46,19.24-29.69,17.17s-22.15-13.59-22.39-26c-11.92,7.27-29.16,3.87-37.43-7.39s-6.37-28.72,4.13-37.93a30.88,30.88,0,0,1,7.39-55.31c-8.58-7.07-10.9-20.66-5.15-30.17s18.86-13.78,29.11-9.47a28.88,28.88,0,0,1,30.11-45.44"/><path class="cls-forest-6" d="M400.42,279.81l15.37,220s-17.43,6.53-32,0l10.17-220S397.91,273.08,400.42,279.81Z"/><path class="cls-forest-6" d="M370.74,294.12a48.76,48.76,0,0,0,.27,6,47.22,47.22,0,0,0,.93,6A31.49,31.49,0,0,0,376.41,317a19.45,19.45,0,0,0,8.88,7.2,13.29,13.29,0,0,0,1.38.49,9.52,9.52,0,0,0,1.41.41l1.43.33,1.47.21a29.26,29.26,0,0,0,3,.27c1,0,2,0,3,0h0a.74.74,0,0,1,.09,1.47,27.4,27.4,0,0,1-12.58-1.14,20.6,20.6,0,0,1-10-7.92,31.91,31.91,0,0,1-4.58-11.81A44.1,44.1,0,0,1,369.4,294a.67.67,0,0,1,.74-.6.67.67,0,0,1,.6.68Z"/><path class="cls-forest-6" d="M397.08,306.71a35.1,35.1,0,0,0,5.85-.5,33.23,33.23,0,0,0,5.67-1.46,23.34,23.34,0,0,0,9.6-6.15,19.81,19.81,0,0,0,3.27-4.67l.34-.63.29-.66c.19-.44.4-.87.57-1.32.3-.92.65-1.82.88-2.77a33.55,33.55,0,0,0,1-5.76c.1-1,.14-2,.21-3s0-2,0-3v0a.74.74,0,0,1,.75-.72.75.75,0,0,1,.72.68c.08,1,.16,2,.22,3.06s0,2.05,0,3.08a35.76,35.76,0,0,1-.83,6.16,25.22,25.22,0,0,1-2.12,5.92,21.75,21.75,0,0,1-3.62,5.2,24.77,24.77,0,0,1-10.66,6.54A31.78,31.78,0,0,1,397,308.05a.67.67,0,0,1-.61-.73.69.69,0,0,1,.67-.61Z"/><path class="cls-forest-6" d="M436.27,314.67a34,34,0,0,1-2.87,13.22,30.22,30.22,0,0,1-8.08,11,28.56,28.56,0,0,1-5.73,3.78,30.68,30.68,0,0,1-6.38,2.45,42.3,42.3,0,0,1-6.67,1.23c-1.12.11-2.24.14-3.36.2s-2.25,0-3.37,0a.73.73,0,0,1,0-1.46h0l3.26-.22c1.08-.13,2.16-.23,3.23-.4a40.72,40.72,0,0,0,6.3-1.41,30.51,30.51,0,0,0,11.19-5.94,27.2,27.2,0,0,0,4.39-4.58A33,33,0,0,0,431.5,327a34.74,34.74,0,0,0,2.24-6,33.83,33.83,0,0,0,1.19-6.32v-.06a.67.67,0,0,1,1.34.07Z"/><path class="cls-forest-6" d="M359.82,332.45a58.26,58.26,0,0,0,1.85,6.91,59.56,59.56,0,0,0,2.61,6.65,55.48,55.48,0,0,0,3.39,6.26,41,41,0,0,0,4.29,5.61c.41.42.78.87,1.21,1.28l1.26,1.22c.89.76,1.77,1.54,2.73,2.21a31.45,31.45,0,0,0,6.07,3.47c.27.12.53.25.81.35l.82.3c.56.19,1.1.42,1.66.58a31.18,31.18,0,0,0,3.43.84,41.58,41.58,0,0,0,7.06.79h0a.72.72,0,0,1,.69.77.74.74,0,0,1-.7.69,34.51,34.51,0,0,1-14.63-2.32,29.94,29.94,0,0,1-6.58-3.63,32.41,32.41,0,0,1-5.6-5,45.23,45.23,0,0,1-7.85-12.59,53.63,53.63,0,0,1-3.88-14.23.67.67,0,0,1,1.33-.22Z"/><path class="cls-forest-6" d="M400.48,382a54,54,0,0,0,5.95-.26,50.19,50.19,0,0,0,5.88-.87,33.64,33.64,0,0,0,10.92-4.11,21.28,21.28,0,0,0,4.42-3.64,20.15,20.15,0,0,0,1.77-2.23l.73-1.22c.26-.41.43-.86.65-1.28a19.69,19.69,0,0,0,1.65-5.52,23.35,23.35,0,0,0,.34-2.91,14.63,14.63,0,0,0,0-1.48l0-1.48v0a.73.73,0,0,1,1.46-.07,24.61,24.61,0,0,1-1.53,12.38,20.32,20.32,0,0,1-8.32,9.48,33.66,33.66,0,0,1-11.77,4.17,46.37,46.37,0,0,1-12.34.42.67.67,0,0,1,.08-1.34Z"/><path class="cls-forest-7" d="M412.7,482.38a13.83,13.83,0,0,0-8.92,3.25c.05-.65.1-1.31.1-2a26.53,26.53,0,0,0-47-16.83,18.39,18.39,0,0,0-13.36.78A36.94,36.94,0,0,0,270,473.23c0,.17,0,.34,0,.52a18.12,18.12,0,0,0-4.32-.53,18.49,18.49,0,1,0,0,37v.69H414.64V510a13.9,13.9,0,0,0-1.94-27.66Z"/><path class="cls-forest-8" d="M611.1,277.67c8.19,13.16,6.37,31.24-1.65,44.51,17.13,3.22,27.68,23.19,24.17,40.27s-18,30.31-34.37,36.46-34.24,6.24-51.64,5c-14.12-1-28.48-2.8-41.23-9s-23.75-17.32-26.54-31.2,4.63-30,18.12-34.28c-9.72-13.41-12.51-32.79-4.24-47.14C510.29,253.66,583,232.49,611.1,277.67Z"/><path class="cls-forest-2" d="M557.78,316.12l6.4,171.29a6.2,6.2,0,0,1-6,6.43l-5.87.22a6.2,6.2,0,0,1-6.43-6.39l5.3-171.57a5.92,5.92,0,0,1,1.21-3.49c.91-1.17,2.29-2.06,4-.2A5.9,5.9,0,0,1,557.78,316.12Z"/><path class="cls-forest-2" d="M550.68,333.66a22.66,22.66,0,0,1-7.24-1,23.1,23.1,0,0,1-6.64-3.19,25.08,25.08,0,0,1-2.87-2.39,21.78,21.78,0,0,1-2.33-2.92,20.07,20.07,0,0,1-2.87-6.76.9.9,0,0,1,.65-1.09.89.89,0,0,1,1,.48l0,.08a28,28,0,0,0,3.33,5.74,19.53,19.53,0,0,0,4.68,4.51,26.11,26.11,0,0,0,5.81,3.1,34.12,34.12,0,0,0,6.45,1.78h.07a.82.82,0,0,1,.68.94A.83.83,0,0,1,550.68,333.66Z"/><path class="cls-forest-2" d="M558.45,335.61a46.79,46.79,0,0,0,7.22-2.34,28.9,28.9,0,0,0,6.44-3.67,16.9,16.9,0,0,0,4.66-5.42,17.67,17.67,0,0,0,1.89-7v0a.9.9,0,0,1,1.79,0,15.82,15.82,0,0,1-1.28,8.21,17.13,17.13,0,0,1-5.3,6.52,25.93,25.93,0,0,1-7.29,3.81,29.81,29.81,0,0,1-8,1.56.82.82,0,0,1-.23-1.62Z"/><path class="cls-forest-2" d="M549.54,376.84a22.18,22.18,0,0,1-7.15.71,21.15,21.15,0,0,1-7.09-1.63,17.05,17.05,0,0,1-1.67-.8l-1.58-1c-.51-.36-1-.78-1.45-1.17-.23-.2-.48-.39-.7-.61l-.62-.69a17.65,17.65,0,0,1-3.68-6.25.9.9,0,0,1,1.59-.81l0,.09a23.55,23.55,0,0,0,4,5.1,17,17,0,0,0,5.25,3.48,23.9,23.9,0,0,0,6.2,1.7,33.48,33.48,0,0,0,6.56.24h.07a.82.82,0,0,1,.27,1.61Z"/><path class="cls-forest-2" d="M560.45,385.27a43,43,0,0,0,4.78-.42,39.12,39.12,0,0,0,4.71-.89,30.49,30.49,0,0,0,8.68-3.54,19.16,19.16,0,0,0,3.61-2.84,17.94,17.94,0,0,0,2.86-3.57,18.25,18.25,0,0,0,1.94-4.2,28.8,28.8,0,0,0,1.15-4.59v0a.9.9,0,0,1,1.78.2,21.56,21.56,0,0,1-2.57,10,20.05,20.05,0,0,1-7.26,7.51,28.26,28.26,0,0,1-9.64,3.6,34.9,34.9,0,0,1-10.15.45.82.82,0,0,1-.72-.91.81.81,0,0,1,.78-.73Z"/><path class="cls-forest-7" d="M597.38,483.69a9.37,9.37,0,0,0-6.06,2.21c0-.45.07-.89.07-1.34a18,18,0,0,0-31.91-11.41,12.38,12.38,0,0,0-3.86-.62,12.6,12.6,0,0,0-5.21,1.14,25.06,25.06,0,0,0-49.83,3.81c0,.12,0,.24,0,.36a12.31,12.31,0,0,0-2.93-.36,12.54,12.54,0,1,0,0,25.08V503h101v-.57a9.43,9.43,0,0,0-1.31-18.77Z"/><path class="cls-forest-5 animate-cloud" d="M698.27,162.13l-1.82,0A28.15,28.15,0,0,0,668,134.36a27.74,27.74,0,0,0-5.94.71,32.92,32.92,0,0,0-63.63,5.25,25.52,25.52,0,0,0-28.79,25.09,47.32,47.32,0,0,0-32.67,34.15l202.22-2.35C733.73,177,720.14,161.87,698.27,162.13Z"/></svg>