<svg id="Capa_1" data-name="Capa 1" xmlns="http://www.w3.org/2000/svg" viewBox="0 0 806.01 899.01"><defs><style>.cls-forest-1{fill:#a1c6ae;opacity:0.8;}.cls-forest-1,.cls-forest-6{isolation:isolate;}.cls-forest-2{fill:#905f36;}.cls-forest-3{fill:#557c63;}.cls-forest-4{fill:#a37858;}.cls-forest-5{fill:#64ad6f;}.cls-forest-6{fill:#74a884;}.cls-forest-7{fill:#fff;}</style></defs><title>PAI CERCS</title><path class="cls-forest-1" d="M604.74,881.51c95-43,137-156.77,92.81-251.27A188.06,188.06,0,0,0,534.41,521.92a76.57,76.57,0,0,1-59.76-32.34,250.15,250.15,0,0,0-110.12-87.76,110.68,110.68,0,0,1-66.12-79.59,119,119,0,0,0-10.7-30.06c-27.78-54.82-93.18-80.67-150.89-59.63a122.48,122.48,0,0,0-70.09,165c.12.24.12.36.24.6,14.19,31.5,12.63,68.17-6.61,97C14.68,564.24,4,654.65,40.16,736,96.55,862.76,244.91,919.74,371.5,863.48l.72-.36a53.22,53.22,0,0,1,51.34,4.21A188,188,0,0,0,604.74,881.51Z"/><path class="cls-forest-1" d="M503.86,414.63a123.87,123.87,0,0,0,10,36.7c26.72,59.33,96.28,87.49,156.69,63.54a122.43,122.43,0,0,0,51-189.3,107.35,107.35,0,0,1-18.65-97.35,176.93,176.93,0,0,0-7.22-120.95C657.78,19.78,556.09-22.34,467.52,12.92A177.2,177.2,0,0,0,448,333.15C478.59,350,500,380.09,503.86,414.63Z"/><path class="cls-forest-2" d="M585.65,508.57,593.4,715.8a7.53,7.53,0,0,1-7.26,7.78l-7.09.26a7.51,7.51,0,0,1-7.79-7.22,4.34,4.34,0,0,1,0-.51l6.41-207.56a7.26,7.26,0,0,1,1.46-4.23c1.1-1.41,2.77-2.49,4.84-.24A7,7,0,0,1,585.65,508.57Z"/><path class="cls-forest-3" d="M594.24,537.67c-13.69,15.5-32,27.82-52.43,30.77s-43-4.59-54.81-21.6-9.68-43.24,6.7-55.87c-16.31-3.29-29.12-19.19-28.9-35.78s13.51-32.14,29.91-34.95,34.08,7.38,39.85,23c-3.62-24.49,16.26-51.67,41-52S622.36,415.4,619.4,440c14.11-13.77,36-20.57,54.34-13.41s30.08,30.25,21.78,48.1c13.53-5.51,30.75.84,37.5,13.81s2,30.7-10.32,38.59-30.39,4.84-39.37-6.74a50.81,50.81,0,0,1-89.82,16.55"/><path class="cls-forest-3" d="M194.49,230.48c-4-17.45,1.37-37.17,14.91-48.93s35.15-13.7,49.65-3.26,19,33.21,8.16,47.46c19.57-12.7,48.8-7.22,62.47,11.75s9.66,48.38-8.59,63a45.67,45.67,0,0,1,25,82.21c26-4.33,53.83,13.79,60.35,39.33s-9.18,54.76-34.07,63.42c17.19,4.16,27.61,24.55,23.19,41.68s-21.2,29.54-38.75,31.48-35.38-5.37-48.68-17.05c-1.38,18-16.7,33.7-34.55,35.66S237.34,567,232.14,549.85c-7,18.95-28.48,31.38-48.43,28s-36.13-22.17-36.52-42.41c-19.45,11.86-47.57,6.31-61.06-12.06s-10.39-46.84,6.74-61.87a50.37,50.37,0,0,1,12-90.22c-14-11.53-17.78-33.7-8.4-49.21s30.77-22.48,47.49-15.45a47.11,47.11,0,0,1,49.11-74.12"/><path class="cls-forest-4" d="M238.86,351.79l25.07,358.86s-28.43,10.65-52.2,0l16.59-358.86S234.76,340.82,238.86,351.79Z"/><path class="cls-forest-4" d="M190.45,375.14a78,78,0,0,0,.44,9.78,77.18,77.18,0,0,0,1.51,9.79,51.61,51.61,0,0,0,7.29,17.75,31.76,31.76,0,0,0,14.49,11.74,20.06,20.06,0,0,0,2.25.8,15.5,15.5,0,0,0,2.3.67l2.33.54,2.4.34a47.24,47.24,0,0,0,4.89.44h4.9a1.22,1.22,0,0,1,1.16,1.25,1.21,1.21,0,0,1-1,1.15,44.66,44.66,0,0,1-20.52-1.86,33.67,33.67,0,0,1-16.31-12.92,52.17,52.17,0,0,1-7.47-19.26,72.37,72.37,0,0,1-.83-20.41,1.09,1.09,0,0,1,1.2-1h0a1.1,1.1,0,0,1,1,1.11Z"/><path class="cls-forest-4" d="M233.41,395.67a57.5,57.5,0,0,0,9.54-.81,54.62,54.62,0,0,0,9.25-2.38,38.07,38.07,0,0,0,15.66-10,32.19,32.19,0,0,0,5.33-7.61l.56-1,.47-1.08c.31-.72.65-1.42.93-2.15.49-1.5,1.06-3,1.44-4.52a55.41,55.41,0,0,0,1.63-9.39c.16-1.64.23-3.27.34-4.9s0-3.26,0-4.89h0a1.21,1.21,0,0,1,1.22-1.18A1.24,1.24,0,0,1,281,346.8c.13,1.63.26,3.27.36,5s0,3.35,0,5A57.82,57.82,0,0,1,280,366.87a40.85,40.85,0,0,1-3.45,9.65A35.65,35.65,0,0,1,270.6,385a40.33,40.33,0,0,1-17.39,10.67,51.93,51.93,0,0,1-19.93,2.19,1.1,1.1,0,0,1-1-1.18h0a1.12,1.12,0,0,1,1.09-1Z"/><path class="cls-forest-4" d="M297.34,408.66a55.42,55.42,0,0,1-4.69,21.56,49.05,49.05,0,0,1-13.18,17.94,46.08,46.08,0,0,1-9.34,6.17,50.89,50.89,0,0,1-10.41,4,69.21,69.21,0,0,1-10.88,2c-1.83.18-3.65.23-5.48.33s-3.67,0-5.5,0a1.19,1.19,0,0,1,0-2.38h0l5.32-.36c1.76-.21,3.52-.38,5.27-.65a68.17,68.17,0,0,0,10.28-2.3A49.87,49.87,0,0,0,277,445.28a44.8,44.8,0,0,0,7.16-7.47,54.11,54.11,0,0,0,5.42-9,56.75,56.75,0,0,0,3.65-9.79,55.63,55.63,0,0,0,1.94-10.31v-.1a1.1,1.1,0,0,1,2.19.12h0Z"/><path class="cls-forest-4" d="M172.63,437.66a97.52,97.52,0,0,0,3,11.27,96.1,96.1,0,0,0,4.26,10.85A89.76,89.76,0,0,0,185.44,470a66,66,0,0,0,7,9.15c.66.68,1.27,1.42,2,2.09l2.05,2c1.46,1.24,2.89,2.51,4.46,3.6a51.11,51.11,0,0,0,9.9,5.66c.44.2.86.41,1.32.57l1.34.49c.91.31,1.79.69,2.71.95a50.63,50.63,0,0,0,5.59,1.37,67.61,67.61,0,0,0,11.52,1.29h0a1.17,1.17,0,0,1,1.12,1.22v0a1.21,1.21,0,0,1-1.14,1.13,56.19,56.19,0,0,1-23.86-3.79,48.48,48.48,0,0,1-10.74-5.92,52.78,52.78,0,0,1-9.13-8.15,74,74,0,0,1-12.81-20.54,87.79,87.79,0,0,1-6.32-23.21,1.09,1.09,0,1,1,2.16-.36Z"/><path class="cls-forest-4" d="M239,518.48a87.22,87.22,0,0,0,9.7-.42,81.51,81.51,0,0,0,9.59-1.42,55,55,0,0,0,17.82-6.7,35.16,35.16,0,0,0,7.21-5.94,33.6,33.6,0,0,0,2.88-3.64l1.19-2c.43-.67.7-1.4,1.06-2.09a31.8,31.8,0,0,0,2.69-9,38,38,0,0,0,.56-4.75c0-.8,0-1.61,0-2.41V477.7h0a1.19,1.19,0,0,1,2.38-.11h0a40.11,40.11,0,0,1-2.49,20.19A33.18,33.18,0,0,1,278,513.25a55,55,0,0,1-19.19,6.8,75.84,75.84,0,0,1-20.13.68,1.09,1.09,0,1,1,.13-2.18h0Z"/><path class="cls-forest-5" d="M504.5,391.29c12,19.23,9.31,45.66-2.42,65.06,25,4.7,40.46,33.89,35.33,58.86s-26.31,44.3-50.23,53.29-50.05,9.12-75.49,7.31c-20.64-1.46-41.63-4.09-60.26-13.16s-34.72-25.31-38.8-45.6,6.77-43.85,26.49-50.11c-14.21-19.6-18.29-47.93-6.2-68.9C357.14,356.19,463.42,325.25,504.5,391.29Z"/><path class="cls-forest-2" d="M426.56,447.49l9.35,250.37a9.06,9.06,0,0,1-8.71,9.4h-.06l-8.58.32a9,9,0,0,1-9.39-8.71c0-.21,0-.42,0-.63l7.75-250.78a8.63,8.63,0,0,1,1.77-5.1c1.33-1.71,3.35-3,5.85-.3A8.64,8.64,0,0,1,426.56,447.49Z"/><path class="cls-forest-2" d="M416.18,473.13a33.25,33.25,0,0,1-10.58-1.47,33.72,33.72,0,0,1-9.71-4.66,37.81,37.81,0,0,1-4.19-3.49,31.15,31.15,0,0,1-3.41-4.27,29.48,29.48,0,0,1-4.19-9.88,1.31,1.31,0,0,1,.95-1.59,1.29,1.29,0,0,1,1.46.7v.11a40.61,40.61,0,0,0,4.87,8.39,28.22,28.22,0,0,0,6.84,6.6,38.26,38.26,0,0,0,8.49,4.53,50.49,50.49,0,0,0,9.43,2.6h.1a1.19,1.19,0,0,1,1,1.37h0A1.22,1.22,0,0,1,416.18,473.13Z"/><path class="cls-forest-2" d="M427.54,476a69.81,69.81,0,0,0,10.55-3.42,42.25,42.25,0,0,0,9.42-5.37,24.72,24.72,0,0,0,6.81-7.92A25.9,25.9,0,0,0,457.08,449h0a1.32,1.32,0,0,1,2.62,0,23.12,23.12,0,0,1-1.88,12,25.09,25.09,0,0,1-7.74,9.53,38.07,38.07,0,0,1-10.66,5.57,43.57,43.57,0,0,1-11.69,2.28,1.2,1.2,0,0,1-.34-2.37Z"/><path class="cls-forest-2" d="M414.51,536.24a32.56,32.56,0,0,1-10.45,1,31.1,31.1,0,0,1-10.36-2.38c-.83-.35-1.65-.74-2.44-1.17L389,532.27c-.75-.53-1.46-1.14-2.12-1.71-.34-.3-.7-.57-1-.9l-.91-1a25.78,25.78,0,0,1-5.38-9.14,1.32,1.32,0,0,1,2.33-1.18v.13a34.25,34.25,0,0,0,5.84,7.45,24.74,24.74,0,0,0,7.68,5.09,34.7,34.7,0,0,0,9.06,2.48,48.82,48.82,0,0,0,9.59.35h.1A1.21,1.21,0,0,1,415.4,535a1.2,1.2,0,0,1-.89,1.24Z"/><path class="cls-forest-2" d="M430.46,548.56a63,63,0,0,0,7-.61,57.14,57.14,0,0,0,6.88-1.3A44.58,44.58,0,0,0,457,541.47a27.84,27.84,0,0,0,5.28-4.15,26.27,26.27,0,0,0,4.18-5.21,26.91,26.91,0,0,0,2.83-6.14,40.92,40.92,0,0,0,1.68-6.71h0a1.32,1.32,0,0,1,2.61.29,31.53,31.53,0,0,1-3.76,14.62,29.32,29.32,0,0,1-10.61,11,41.24,41.24,0,0,1-14.09,5.27,51,51,0,0,1-14.84.65,1.19,1.19,0,0,1-1.05-1.33h0a1.18,1.18,0,0,1,1.14-1.06Z"/><path class="cls-forest-6" d="M509.84,687.82a12.38,12.38,0,0,0-8,2.91c0-.59.09-1.17.09-1.76a23.73,23.73,0,0,0-42.07-15.05,16.29,16.29,0,0,0-5.09-.82,16.64,16.64,0,0,0-6.87,1.51,33,33,0,0,0-65.71,5v.47a16.18,16.18,0,0,0-3.86-.47,16.54,16.54,0,1,0,0,33.07h0v.58H511.52v-.75a12.43,12.43,0,0,0-1.73-24.75Z"/><path class="cls-forest-6" d="M606.73,727.2a12.39,12.39,0,0,0-8,2.92c0-.6.1-1.18.1-1.77a23.74,23.74,0,0,0-42.08-15.05,16.28,16.28,0,0,0-5.09-.81,16.48,16.48,0,0,0-6.87,1.5,33,33,0,0,0-65.7,5v.48a16.81,16.81,0,0,0-3.87-.48,16.54,16.54,0,1,0,0,33.07h0v.58H608.41v-.75a12.43,12.43,0,0,0-1.73-24.75Z"/><path class="cls-forest-6" d="M311.85,703.12a17.32,17.32,0,0,0-11.2,4.09c0-.83.13-1.65.13-2.48a33.27,33.27,0,0,0-59-21.09,23,23,0,0,0-16.77,1,46.32,46.32,0,0,0-92.1,7v.66a22.46,22.46,0,0,0-5.42-.66,23.18,23.18,0,1,0,0,46.35h0v.81H314.19v-1a17.43,17.43,0,0,0-2.42-34.69Z"/><path class="cls-forest-6" d="M282.27,687.78a12.43,12.43,0,0,0-1.72,24.75v.75H413.72v-.58h0a16.54,16.54,0,0,0,0-33.07,16.18,16.18,0,0,0-3.86.47v-.47a33,33,0,0,0-65.71-5,16.57,16.57,0,0,0-6.87-1.51,16.33,16.33,0,0,0-5.09.82A23.73,23.73,0,0,0,290.12,689c0,.59.09,1.17.09,1.76a12.34,12.34,0,0,0-8-2.91Z"/><path class="cls-forest-7 animate-cloud" d="M686.15,336.13h-2a31.33,31.33,0,0,0-31.67-30.92,30.72,30.72,0,0,0-6.62.79A36.65,36.65,0,0,0,575,311.84a28.42,28.42,0,0,0-31.82,24.54,27.61,27.61,0,0,0-.23,3.4,52.69,52.69,0,0,0-36.38,38l225.16-2.62C725.63,352.69,710.5,335.84,686.15,336.13Z"/><path class="cls-forest-7 animate-cloud" d="M554.83,217.21a35.06,35.06,0,0,0-11.69,2,68.78,68.78,0,0,0-137.31-1,27.52,27.52,0,0,0-21.16,32.67,27.93,27.93,0,0,0,1.14,3.89h204.1c.05-.8.12-1.59.12-2.4a35.18,35.18,0,0,0-35.19-35.19Z"/></svg>