<?xml version="1.0" encoding="utf-8"?>
<!-- Generator: Adobe Illustrator 22.0.1, SVG Export Plug-In . SVG Version: 6.00 Build 0)  -->
<svg version="1.1" id="Capa_1" xmlns="http://www.w3.org/2000/svg" xmlns:xlink="http://www.w3.org/1999/xlink" x="0px" y="0px"
	 viewBox="0 0 671 800" style="enable-background:new 0 0 671 800;" xml:space="preserve">
<g>
	<defs>
		<rect id="SVGID_3_" x="1407" y="-876" width="1654" height="4298"/>
	</defs>
	<clipPath id="SVGID_2_">
		<use xlink:href="#SVGID_3_"  style="overflow:visible;"/>
	</clipPath>
	<path style="opacity:0.6;clip-path:url(#SVGID_2_);fill:#E2E2E2;" d="M2265.3,941.1c301.9-136.7,435.6-498.6,295.2-798.9
		c-97.7-209-301.7-335.8-518.6-344.5c-75.9-3-146.2-40.6-189.8-102.8c-89.2-127.1-211.8-222.3-350-278.9
		c-107.7-44.1-186-139.4-210.3-253.2c-6.9-32.4-18.1-64.5-33.9-95.6c-88.3-174.2-296.4-256.5-479.8-189.5
		C564-1044.1,464.1-802.8,555.1-598c0.3,0.6,0.6,1.2,0.8,1.9c45.2,100.3,39.9,216.8-20.9,308.5C389.1-67.9,355.3,219.6,470.4,478.5
		c179.1,402.7,650.7,584,1053.4,404.9c0.8-0.4,1.6-0.7,2.4-1.1c53.3-23.9,114.4-18.6,163.2,13.5
		C1855.1,1004.6,2071.1,1029,2265.3,941.1z"/>
</g>
<path class="st26" d="M320.3,82c-2.6,0-5.2,0.5-7.5,1.3c-1.2-23.4-20.6-42.1-44.3-42.1c-23.5,0-42.8,18.3-44.3,41.4
	c-8,1.7-14,8.9-14,17.4c0,2.2,0.4,4.3,1.1,6.2h131.7c0-0.5,0.1-1,0.1-1.5C343,92.2,332.8,82,320.3,82z"/>
<path class="st96" d="M502.8,757.2c79-35.8,114-130.4,77.2-209c-25.6-54.7-78.9-87.9-135.7-90.1c-19.9-0.8-38.2-10.6-49.7-26.9
	c-23.3-33.2-55.4-58.2-91.6-73c-28.2-11.5-48.7-36.5-55-66.2c-1.8-8.5-4.7-16.9-8.9-25c-23.1-45.6-77.5-67.1-125.5-49.6
	c-56,20.5-82.2,83.6-58.3,137.2c0.1,0.2,0.1,0.3,0.2,0.5c11.8,26.2,10.5,56.7-5.5,80.7C12,493.3,3.1,568.5,33.2,636.2
	C80.1,741.6,203.5,789,308.8,742.2c0.2-0.1,0.4-0.2,0.6-0.3c13.9-6.3,29.9-4.9,42.7,3.5C395.5,773.9,452,780.2,502.8,757.2z"/>
<path class="st6" d="M418.5,368.7c1.1,10.3,3.9,20.5,8.3,30.5C449,448.5,506.8,471.9,557,452c52.8-21,78.1-81,56.4-133.3
	c-3.6-8.8-8.4-16.8-14-24c-18-22.9-23.9-53-15.5-80.9c9.5-32,8.3-67.4-6-100.5C546.4,40.6,461.9,5.6,388.3,34.9
	c-76.5,30.4-113.1,117.4-81.7,193.2c13.4,32.4,37,57.4,65.5,72.9C397.5,315,415.3,340,418.5,368.7z"/>
<path class="st37" d="M199,274.2c0,0-14.6,303.2-46.3,341.2h233c0,0-45.5-98.6-55-325.2c-0.4-8.9-7.7-16-16.7-16H199z"/>
<path class="st112" d="M269.2,274.2v341.2h116.5c0,0-45.8-99.2-55.1-327.2c-0.3-7.8-6.8-14-14.6-14H269.2z"/>
<polygon class="st112" points="435.8,146.6 414.7,617.3 492.9,618.3 482.9,147.1 "/>
<polygon class="st37" points="414.7,617.8 453.8,618.3 459.4,147.3 435.8,147 "/>
<path class="st26" d="M586,336.9c-2.6,0-5.2,0.5-7.5,1.3c-1.2-23.4-20.6-42.1-44.3-42.1c-23.5,0-42.8,18.3-44.3,41.4
	c-8,1.7-14,8.9-14,17.4c0,2.2,0.4,4.3,1.1,6.2h131.7c0-0.5,0.1-1,0.1-1.5C608.7,347.1,598.6,336.9,586,336.9z"/>
<path class="st113" d="M617.9,586.8c-8.7,0-16.8,2.5-23.6,6.8c-4.4-28.5-29-50.3-58.7-50.3c-10.2,0-19.8,2.6-28.2,7.1
	c-19.7-41.9-62.3-70.9-111.6-70.9c-51.5,0-95.6,31.6-114.1,76.5c-3-0.4-6.1-0.6-9.2-0.6c-42,0-76,34-76,76c0,5.9,0.7,11.7,2,17.2
	h374.9c0.9-0.7,1.7-1.4,2.6-2.2c0.3,0.7,0.6,1.5,0.9,2.2h82.2c2.2-5.3,3.4-11.1,3.4-17.2C662.5,606.7,642.5,586.8,617.9,586.8z"/>
<g>
	<path class="st39" d="M260.1,227.6l-2.8,0c-0.3-24.2-20.2-43.6-44.4-43.3c-3.2,0-6.3,0.4-9.3,1.1c-7-20.4-26.4-35-49.2-34.7
		c-25.3,0.3-46,18.8-50,42.9c-1.7-0.2-3.5-0.4-5.3-0.3c-21.8,0.3-39.2,17.8-39.5,39.4c-25.1,7.3-44.8,27.7-50.9,53.2l315.2-3.7
		C315.3,250.7,294.2,227.2,260.1,227.6z"/>
</g>
<g>
	<path class="st39" d="M450.7,121.8l-1.3,0c-0.1-12.7-9.2-22.9-20.3-22.8c-1.5,0-2.9,0.2-4.2,0.6c-3.2-10.7-12.1-18.4-22.5-18.2
		c-11.5,0.2-21,9.9-22.8,22.5c-0.8-0.1-1.6-0.2-2.4-0.2c-9.9,0.1-17.9,9.4-18.1,20.7c-11.5,3.8-20.4,14.6-23.3,28l144-1.9
		C475.9,134,466.2,121.6,450.7,121.8z"/>
</g>
<g>
	<g>
		<path class="st114" d="M124.1,513L117,651.5c1.7-0.1,12.8,0.1,14.5,0c-0.5-59.3-5.9-138.6-7-138.6
			C124.5,513,124.1,511.4,124.1,513z"/>
	</g>
	<path class="st114" d="M102.9,579.5c-10.1-7.2-18-17.9-18-17.9c20.3,32.7,39,31.7,39,31.7l0.4-4.6
		C124.3,588.8,120.3,591.8,102.9,579.5z"/>
	<path class="st114" d="M142.5,568c-14.8,10.4-18.2,7.8-18.2,7.8l0.3,3.9c0,0,15.9,0.8,33.1-27C157.8,552.8,151.1,561.9,142.5,568z"
		/>
	<path class="st114" d="M109.7,545.7c-6.9-4.9-12.3-12.3-12.3-12.3c13.9,22.4,26.7,21.8,26.7,21.8l0.3-3.2
		C124.3,552,121.6,554.1,109.7,545.7z"/>
</g>
<g>
	<g>
		<path class="st114" d="M53.2,540.3l-5.5,106.1c1.3-0.1,9.8,0.1,11.1,0c-0.4-45.4-4.5-106.1-5.3-106.1
			C53.5,540.3,53.2,539.1,53.2,540.3z"/>
	</g>
	<path class="st114" d="M42.1,565.3c-5.3-3.8-9.5-9.4-9.5-9.4c10.7,17.2,20.5,16.7,20.5,16.7l0.2-2.4
		C53.3,570.2,51.2,571.8,42.1,565.3z"/>
</g>
<g>
	<g>
		<path class="st114" d="M387.9,582.3l-5.5,106.1c1.3-0.1,9.8,0.1,11.1,0c-0.4-45.4-4.5-106.1-5.3-106.1
			C388.2,582.3,387.9,581.1,387.9,582.3z"/>
	</g>
	<path class="st114" d="M371.6,633.3c-7.7-5.5-13.8-13.7-13.8-13.7c15.6,25,29.9,24.3,29.9,24.3l0.3-3.5
		C388,640.4,384.9,642.7,371.6,633.3z"/>
	<path class="st114" d="M401.9,624.5c-11.3,8-13.9,6-13.9,6l0.3,3c0,0,12.2,0.6,25.4-20.7C413.6,612.8,408.5,619.8,401.9,624.5z"/>
	<path class="st114" d="M376.8,607.4c-5.3-3.8-9.5-9.4-9.5-9.4c10.7,17.2,20.5,16.7,20.5,16.7l0.2-2.4
		C388,612.2,385.9,613.8,376.8,607.4z"/>
</g>
<g>
	<g>
		<path class="st114" d="M509.7,607.2l-5.5,106.1c1.3-0.1,9.8,0.1,11.1,0c-0.4-45.4-4.5-106.1-5.3-106.1
			C510,607.2,509.7,606,509.7,607.2z"/>
	</g>
	<path class="st114" d="M523.8,649.3c-11.3,8-13.9,6-13.9,6l0.3,3c0,0,12.2,0.6,25.4-20.7C535.5,637.7,530.4,644.7,523.8,649.3z"/>
	<path class="st114" d="M498.6,632.3c-5.3-3.8-9.5-9.4-9.5-9.4c10.7,17.2,20.5,16.7,20.5,16.7l0.2-2.4
		C509.9,637.1,507.8,638.7,498.6,632.3z"/>
</g>
</svg>
