<svg id="Capa_1" data-name="Capa 1" xmlns="http://www.w3.org/2000/svg" viewBox="0 0 806.01 899.01"><defs><style>.cls-nuclear-plant-1{fill:#c9c7c7;}.cls-nuclear-plant-2{fill:#d6d6d8;}.cls-nuclear-plant-3{fill:#e2e2e2;}.cls-nuclear-plant-4{fill:#767575;}.cls-nuclear-plant-5{fill:#666;}.cls-nuclear-plant-6{fill:#8e909b;}.cls-nuclear-plant-7{fill:#95969d;}.cls-nuclear-plant-8{fill:#282725;}</style></defs><title>PAI CERCS</title><path class="cls-nuclear-plant-1 animate-cloud" d="M385.69,69.6a28,28,0,0,0-9,1.57A53.4,53.4,0,0,0,270,70.33a21.42,21.42,0,0,0-16.85,20.94,21.7,21.7,0,0,0,1.32,7.46H413c0-.61.12-1.21.12-1.81A27.56,27.56,0,0,0,385.69,69.6Z"/><path class="cls-nuclear-plant-2" d="M604.74,881.51c95-43,137-156.77,92.81-251.27A188.06,188.06,0,0,0,534.41,521.92a76.57,76.57,0,0,1-59.76-32.34,250.15,250.15,0,0,0-110.12-87.76,110.68,110.68,0,0,1-66.12-79.59,119,119,0,0,0-10.7-30.06c-27.78-54.82-93.18-80.67-150.89-59.63a122.48,122.48,0,0,0-70.09,165c.12.24.12.36.24.6,14.19,31.5,12.63,68.17-6.61,97C14.68,564.24,4,654.65,40.16,736,96.55,862.76,244.91,919.74,371.5,863.48l.72-.36a53.22,53.22,0,0,1,51.34,4.21A188,188,0,0,0,604.74,881.51Z"/><path class="cls-nuclear-plant-3" d="M503.86,414.63a123.87,123.87,0,0,0,10,36.7c26.72,59.33,96.28,87.49,156.69,63.54a122.43,122.43,0,0,0,51-189.3,107.35,107.35,0,0,1-18.65-97.35,176.93,176.93,0,0,0-7.22-120.95C657.78,19.78,556.09-22.34,467.52,12.92A177.2,177.2,0,0,0,448,333.15C478.59,350,500,380.09,503.86,414.63Z"/><path class="cls-nuclear-plant-4" d="M239.71,300.9S222.14,665.78,184,711.51h280.4S409.64,592.85,398.2,320.16a20.13,20.13,0,0,0-20.09-19.26Z"/><path class="cls-nuclear-plant-5" d="M324.19,300.9V711.51h140.2s-55.12-119.38-66.31-393.76a17.61,17.61,0,0,0-17.57-16.85Z"/><polygon class="cls-nuclear-plant-5" points="524.68 147.34 499.29 713.8 593.4 715 581.37 147.95 524.68 147.34"/><polygon class="cls-nuclear-plant-4" points="499.29 714.4 546.35 715 553.08 148.19 524.68 147.83 499.29 714.4"/><path class="cls-nuclear-plant-1 animate-cloud" d="M705.44,376.36a28,28,0,0,0-9,1.56,53.41,53.41,0,0,0-106.62-.84A21.42,21.42,0,0,0,572.94,398a21.66,21.66,0,0,0,1.32,7.46h158.5c0-.6.12-1.2.12-1.81A27.48,27.48,0,0,0,705.44,376.36Z"/><path class="cls-nuclear-plant-6 animate-fog" d="M694.49,751.46h98.92a53.8,53.8,0,0,0-49.58-74.37,52.93,52.93,0,0,0-28.4,8.19,71.52,71.52,0,0,0-104.58-52A148.4,148.4,0,0,0,339.24,640a84.51,84.51,0,0,0-11.08-.72,91.42,91.42,0,0,0-91.46,91.46,90.33,90.33,0,0,0,2.41,20.69H690.27"/><path class="cls-nuclear-plant-7" d="M313.24,244.82h-3.37a52.81,52.81,0,0,0-53.43-52.11A49.24,49.24,0,0,0,245.25,194a61.77,61.77,0,0,0-119.38,9.87,37.22,37.22,0,0,0-6.38-.37A48.11,48.11,0,0,0,72,251,88.59,88.59,0,0,0,10.7,315L390,310.53C379.67,272.62,354.28,244.34,313.24,244.82Z"/><path class="cls-nuclear-plant-7" d="M542.61,117.5h-1.56c-.12-15.28-11.07-27.56-24.43-27.44a17.12,17.12,0,0,0-5.05.72c-3.86-12.87-14.57-22.14-27.08-21.9-13.84.24-25.27,11.92-27.44,27.08a23.3,23.3,0,0,0-2.89-.24c-11.91.12-21.54,11.31-21.78,24.91-13.84,4.57-24.55,17.57-28,33.69L577.63,152C572.94,132.18,561.27,117.26,542.61,117.5Z"/><path class="cls-nuclear-plant-8" d="M149.58,588.28,141,755c2.05-.12,15.4.13,17.45,0-.6-71.36-7.1-166.79-8.42-166.79C150.06,588.28,149.58,586.35,149.58,588.28Z"/><path class="cls-nuclear-plant-8" d="M124.06,668.31c-12.15-8.67-21.66-21.54-21.66-21.54,24.43,39.35,46.93,38.15,46.93,38.15l.49-5.54C149.82,679.5,145,683.11,124.06,668.31Z"/><path class="cls-nuclear-plant-8" d="M171.72,654.47c-17.81,12.51-21.9,9.39-21.9,9.39l.36,4.69s19.13,1,39.83-32.49C190.13,636.18,182.07,647.13,171.72,654.47Z"/><path class="cls-nuclear-plant-8" d="M132.25,627.63c-8.31-5.89-14.81-14.8-14.81-14.8,16.73,27,32.14,26.23,32.14,26.23l.36-3.85C149.82,635.21,146.57,637.74,132.25,627.63Z"/><path class="cls-nuclear-plant-8" d="M64.25,621.13,57.63,748.82c1.57-.12,11.8.12,13.36,0-.48-54.64-5.41-127.69-6.38-127.69C64.61,621.13,64.25,619.69,64.25,621.13Z"/><path class="cls-nuclear-plant-8" d="M50.89,651.22a61.14,61.14,0,0,1-11.43-11.31C52.34,660.61,64.13,660,64.13,660l.24-2.88S61.85,659,50.89,651.22Z"/><path class="cls-nuclear-plant-8" d="M467,671.68l-6.62,127.68c1.56-.12,11.79.12,13.36,0-.48-54.63-5.42-127.68-6.38-127.68C467.4,671.68,467,670.23,467,671.68Z"/><path class="cls-nuclear-plant-8" d="M447.42,733.05c-9.26-6.62-16.6-16.48-16.6-16.48,18.77,30.08,36,29.24,36,29.24l.36-4.21S463.43,744.36,447.42,733.05Z"/><path class="cls-nuclear-plant-8" d="M483.89,722.46c-13.6,9.63-16.73,7.22-16.73,7.22l.36,3.61s14.68.73,30.57-24.91C498,708.38,491.83,716.81,483.89,722.46Z"/><path class="cls-nuclear-plant-8" d="M453.68,701.88a60.78,60.78,0,0,1-11.43-11.31c12.88,20.7,24.67,20.1,24.67,20.1l.24-2.89C467.16,707.66,464.63,709.59,453.68,701.88Z"/><path class="cls-nuclear-plant-8" d="M613.62,701.64,607,829.33c1.56-.12,11.79.12,13.36,0-.49-54.64-5.42-127.69-6.38-127.69C614,701.64,613.62,700.2,613.62,701.64Z"/><path class="cls-nuclear-plant-8" d="M630.58,752.31c-13.59,9.62-16.72,7.22-16.72,7.22l.36,3.61s14.68.72,30.57-24.91C644.66,738.35,638.53,746.77,630.58,752.31Z"/><path class="cls-nuclear-plant-8" d="M600.26,731.85a60.78,60.78,0,0,1-11.43-11.31c12.87,20.7,24.67,20.09,24.67,20.09l.24-2.88C613.86,737.63,611.33,739.55,600.26,731.85Z"/></svg>