<svg id="Capa_1" data-name="Capa 1" xmlns="http://www.w3.org/2000/svg" viewBox="0 0 575.08 653.58"><defs><style>.cls-flowers-1{fill:#78a88b;opacity:0.8;isolation:isolate;}.cls-flowers-2{fill:#557c63;}.cls-flowers-3{fill:#e96352;}.cls-flowers-4{fill:#f7876e;}.cls-flowers-5{fill:#e0473b;}.cls-flowers-6{fill:#fefefc;}.cls-flowers-7{fill:#f9ca6d;}.cls-flowers-8{fill:#fdbe6d;}</style></defs><title>PAI CERCS</title><path class="cls-flowers-1" d="M390.77,596.25c17.11-23.66,29.25-52.18,38.81-80.33,1.32-.11,3.2-.32,5.51-.71a120.21,120.21,0,0,0,18.52-4.6,156.51,156.51,0,0,0,23.5-10,186.77,186.77,0,0,0,24.1-15.3,182.26,182.26,0,0,0,21.43-18.89c3.21-3.31,6.17-6.66,8.89-10s5.14-6.65,7.3-9.79,4-6.17,5.66-9,2.89-5.33,3.89-7.51a61.92,61.92,0,0,0,3-7.2,60.4,60.4,0,0,0-7.71.85c-2.38.36-5.15.92-8.33,1.66s-6.55,1.74-10.19,2.91-7.52,2.61-11.45,4.32-8,3.59-12.07,5.75a178.86,178.86,0,0,0-24.07,15.33,183.86,183.86,0,0,0-21.39,18.92,151.26,151.26,0,0,0-16.2,19.78c-2.13,3.08-4,6.09-5.55,8.85.66-2.16,1.33-4.31,2-6.48a589.59,589.59,0,0,0,15.31-63.15c1-.14,2.13-.3,3.44-.52a119.41,119.41,0,0,0,18.52-4.62,155.55,155.55,0,0,0,23.51-10,185.7,185.7,0,0,0,24.1-15.3,178.54,178.54,0,0,0,21.41-18.87c3.21-3.31,6.18-6.67,8.89-10s5.15-6.65,7.31-9.8,4-6.17,5.66-9,2.89-5.34,3.9-7.51a64.64,64.64,0,0,0,3-7.21,63.82,63.82,0,0,0-7.7.83c-2.4.39-5.22.93-8.33,1.67s-6.55,1.73-10.23,2.93-7.48,2.6-11.43,4.29-8,3.62-12.06,5.76a180.46,180.46,0,0,0-24.06,15.34,183.89,183.89,0,0,0-21.42,18.89A156.17,156.17,0,0,0,460,408.31c-2.27,3.31-4.22,6.48-5.88,9.37q5.14-31.28,7.2-63c1-.44,2.06-.94,3.3-1.57a123.23,123.23,0,0,0,16.25-10,151.58,151.58,0,0,0,19.36-16.69,180.88,180.88,0,0,0,18.34-21.88,178.26,178.26,0,0,0,14.72-24.46c2.06-4.11,3.87-8.23,5.44-12.2s2.87-7.9,4-11.55,2-7.14,2.66-10.29,1.16-6,1.45-8.34a60.74,60.74,0,0,0,.64-7.74,65.51,65.51,0,0,0-7.09,3.09c-2.15,1.08-4.64,2.46-7.42,4.12s-5.71,3.61-8.85,5.84-6.36,4.78-9.59,7.58-6.54,5.85-9.78,9.13a183.52,183.52,0,0,0-32.93,46.4,153.37,153.37,0,0,0-9.26,23.3q.78-26.64-.31-53.33a124.87,124.87,0,0,0,4.3-15.79,155.93,155.93,0,0,0,2.88-25.41,183.39,183.39,0,0,0-7.13-56.48c-1.3-4.42-2.74-8.65-4.28-12.65s-3.25-7.75-4.89-11.22-3.39-6.59-5-9.35-3.19-5.15-4.6-7.11a55.3,55.3,0,0,0-4.78-6.12,64.5,64.5,0,0,0-3.08,7.1c-.86,2.27-1.76,5-2.65,8.06s-1.77,6.56-2.53,10.29-1.46,7.81-1.93,12.08-.83,8.72-1,13.31a180.33,180.33,0,0,0,1.4,28.54,187.39,187.39,0,0,0,5.73,28,154.37,154.37,0,0,0,9.19,23.87,121.72,121.72,0,0,0,9.58,16.46c.93,1.33,1.77,2.44,2.49,3.37a724.63,724.63,0,0,1-2.15,85.54,131.07,131.07,0,0,0-6.05-15.44A158.13,158.13,0,0,0,435,331a187.56,187.56,0,0,0-18-22.12,181,181,0,0,0-21.26-19q-5.54-4.19-11-7.65c-3.64-2.29-7.21-4.31-10.58-6.12s-6.64-3.27-9.61-4.53-5.63-2.25-7.93-3a61.57,61.57,0,0,0-7.44-2.05,58.82,58.82,0,0,0,1.73,7.54c.64,2.34,1.52,5,2.62,8.08s2.5,6.3,4.12,9.78,3.49,7.15,5.64,10.86,4.51,7.51,7.11,11.32a181.28,181.28,0,0,0,18.06,22.09,184.87,184.87,0,0,0,21.29,19,154.16,154.16,0,0,0,21.61,13.74,120.31,120.31,0,0,0,17.5,7.56c1.59.54,3,1,4.12,1.26a607.35,607.35,0,0,1-14.32,84.39c-.23-.87-.48-1.85-.79-2.94a123.92,123.92,0,0,0-6.76-17.88,156.66,156.66,0,0,0-12.73-22.17A185.05,185.05,0,0,0,400.33,397a179.78,179.78,0,0,0-21.28-19.06c-3.64-2.77-7.32-5.34-10.95-7.63s-7.2-4.3-10.57-6.12-6.65-3.29-9.62-4.53-5.62-2.26-7.92-3a64.36,64.36,0,0,0-7.46-2.06,61.12,61.12,0,0,0,1.73,7.55c.66,2.31,1.54,5,2.64,8.06s2.49,6.32,4.12,9.8a118.59,118.59,0,0,0,5.63,10.83c2.17,3.64,4.5,7.54,7.12,11.32a181.36,181.36,0,0,0,18.07,22.09,184,184,0,0,0,21.28,19A155.61,155.61,0,0,0,414.64,457a122.54,122.54,0,0,0,17.5,7.56c2.24.76,4.11,1.3,5.39,1.64-2.67,10.58-5.64,21.09-9,31.51-4.11,12.78-8.55,25.86-13.66,38.73-.26-1.11-.59-2.45-1-4a117.93,117.93,0,0,0-6.77-17.82,150.77,150.77,0,0,0-12.73-22.17,185.13,185.13,0,0,0-39.27-41.17c-3.68-2.79-7.37-5.35-11-7.63s-7.2-4.3-10.57-6.12a104.71,104.71,0,0,0-9.61-4.53c-3-1.25-5.64-2.25-7.9-3a66.59,66.59,0,0,0-7.47-2.06,65.1,65.1,0,0,0,1.72,7.56c.66,2.3,1.54,5,2.65,8.05s2.49,6.3,4.12,9.8a119,119,0,0,0,5.65,10.84c2.17,3.63,4.49,7.53,7.11,11.32a183.27,183.27,0,0,0,18.07,22.11,186.55,186.55,0,0,0,21.29,19,156.42,156.42,0,0,0,21.54,13.73,122.54,122.54,0,0,0,17.5,7.56c2.28.79,4.18,1.31,5.48,1.65-7.63,18.75-16.74,37-28.32,53C382.87,596,388.3,599.68,390.77,596.25Z"/><path class="cls-flowers-2" d="M330.66,587.49C314.93,607.72,136.52,629.42,145,564.1c7.13-55,129.26-20,172.09,6-11.64-15.37-22.64-31.08-33.1-46.63q-15-22.35-28.53-45.58C226,491,60.34,470.51,82.73,411c17.92-47.59,112.67.63,155.8,36.1q-19.89-37.77-36-77.3C180.07,384,5.06,351.78,32.4,292.23c22.82-49.77,126.74,17.49,161.27,55.38Q177.47,305,165.29,260.9c-27,9.48-192-44.68-157.59-99.52C36.2,116,127.08,191.87,158.38,234.57q-6.16-24.69-11.06-49.75C122.52,170.09,57,9.66,121,.36c60.49-8.8,53.45,146.5,36.11,179.45q5.5,28.26,12.63,56.14c9.45-48.53,68.44-166,113.31-131.39,50.53,39-78.59,149.52-108,151.64q12,43.37,28,85.41c4.7-51.45,47-169.46,94.92-141.65,54.45,31.6-55.4,155.13-86.06,164.13a897.45,897.45,0,0,0,44.68,93.47c-3.49-44.35,31.59-183.12,84.59-157.12C399.6,329.09,289.85,467.92,264,470.88q13.82,24,29.2,47.22c9.2,13.86,18.9,27.79,29.15,41.52-10.48-51.12-4.82-174.7,48.83-162.45,61.34,14-6.79,164.42-33.44,182.25,19.3,23.9,40.44,46.39,63.75,65.29,5.36,4.34-2.25,11.9-7.57,7.58C370.75,633.54,349.81,611.19,330.66,587.49Z"/><path class="cls-flowers-2" d="M275.1,317.71s-.61-1.6-1.52-4.46-2.06-7-3.18-12a192.85,192.85,0,0,1,1-87.47,198.91,198.91,0,0,1,19-48.6,196.61,196.61,0,0,1,30.94-42A191.47,191.47,0,0,1,395,75.87c4.83-1.73,9-2.91,11.87-3.65s4.6-1,4.61-1,.62,1.61,1.54,4.48,2.05,7,3.21,12a191.31,191.31,0,0,1-1,87.51,196.49,196.49,0,0,1-19.15,48.5A198.62,198.62,0,0,1,365,265.6a192.82,192.82,0,0,1-73.55,47.34c-4.82,1.74-8.95,2.91-11.85,3.68S275.1,317.71,275.1,317.71Z"/><path class="cls-flowers-3" d="M312.76,273.24a100.38,100.38,0,1,0-197.69-27.16A87,87,0,1,0,99.68,419.42q2.92.25,5.86.32a100.38,100.38,0,1,0,198.82,27.81q.17-1.17.3-2.34a87,87,0,1,0,8.1-172Z"/><path class="cls-flowers-4" d="M307.08,343.24A78.12,78.12,0,1,0,192.76,238.17a67.72,67.72,0,1,0-86.75,104q1.74,1.45,3.59,2.8A78.13,78.13,0,0,0,224.07,451.34c.52-.56,1-1.12,1.52-1.69a67.74,67.74,0,1,0,81.49-106.41Z"/><path class="cls-flowers-5" d="M158.18,294.61,200.11,337c1.73,1.76,4.72-.69,3-2.46l-41.94-42.44C159.4,290.39,156.43,292.84,158.18,294.61Z"/><path class="cls-flowers-5" d="M173.28,270.05q15.66,31.31,31.3,62.61c1.11,2.22,4.63.64,3.52-1.59q-15.66-31.31-31.3-62.61C175.69,266.24,172.17,267.83,173.28,270.05Z"/><path class="cls-flowers-5" d="M204.53,272.74q3.58,27.87,7.2,55.74c.31,2.47,4.12,1.82,3.8-.64l-7.2-55.72C208,269.64,204.21,270.28,204.53,272.74Z"/><path class="cls-flowers-5" d="M240.36,257.13q-10.14,36.94-20.3,73.87c-.65,2.38,3,3.73,3.63,1.32q10.14-36.94,20.3-73.87C244.64,256.07,241,254.72,240.36,257.13Z"/><path class="cls-flowers-5" d="M267.1,285l-42.46,50.8c-1.6,1.91,1.57,4.11,3.16,2.2l42.46-50.79C271.85,285.29,268.68,283.09,267.1,285Z"/><path class="cls-flowers-5" d="M297.1,310.88l-69,33.91c-2.24,1.1-.65,4.61,1.58,3.51l69-33.91C300.91,313.29,299.33,309.78,297.1,310.88Z"/><path class="cls-flowers-5" d="M292.33,347.53l-61.54,7c-2.48.28-1.82,4.11.64,3.8l61.53-7c2.48-.29,1.83-4.12-.63-3.81Z"/><path class="cls-flowers-5" d="M296.48,383.77l-61.75-24c-2.32-.9-3.64,2.72-1.31,3.63l61.74,24C297.49,388.3,298.8,384.68,296.48,383.77Z"/><path class="cls-flowers-5" d="M272.53,408.52l-39.1-42.33c-1.68-1.82-4.66.63-3,2.46L269.57,411c1.69,1.83,4.66-.63,3-2.46Z"/><path class="cls-flowers-5" d="M254,440.67l-30.15-72.9c-1-2.3-4.47-.71-3.52,1.59q15.07,36.43,30.15,72.91c1,2.29,4.47.7,3.52-1.6Z"/><path class="cls-flowers-5" d="M217.83,435.44q1.28-34.15,2.53-68.32c.09-2.48-3.76-2.84-3.85-.36Q215.27,401,214,435.09c-.1,2.47,3.74,2.84,3.83.35Z"/><path class="cls-flowers-5" d="M181.1,444.27q14.52-36.66,29.07-73.31c.91-2.31-2.71-3.63-3.64-1.31Q192,406.29,177.46,443C176.55,445.26,180.18,446.58,181.1,444.27Z"/><path class="cls-flowers-5" d="M158.74,406.67l41.28-41c1.75-1.73-.7-4.71-2.46-3l-41.29,41C154.52,405.44,157,408.42,158.74,406.67Z"/><path class="cls-flowers-5" d="M112.18,383.75q40.81-11.94,81.58-24.07c2.36-.7,1.75-4.5-.62-3.8-27.2,8-54.38,16.11-81.6,24.07-2.36.69-1.75,4.49.64,3.8Z"/><path class="cls-flowers-5" d="M139.23,345.09l51.87,3.56c2.48.17,2.84-3.67.35-3.85l-51.87-3.53c-2.48-.16-2.84,3.68-.35,3.85Z"/><path class="cls-flowers-5" d="M125,312.14l69.16,28.1c2.31.94,3.63-2.68,1.32-3.63l-69.17-28.14c-2.3-.93-3.62,2.69-1.31,3.63Z"/><circle class="cls-flowers-6" cx="215.2" cy="350.57" r="43.19"/><path class="cls-flowers-7" d="M519.61,255.2c-29.69,7.63-56,5.19-58.72-5.45S480,224.3,509.7,216.67s56-5.21,58.73,5.43S549.3,247.56,519.61,255.2Z"/><path class="cls-flowers-7" d="M391.14,288.23c-29.69,7.64-56,5.2-58.72-5.44s19.12-25.45,48.81-33.09,56-5.2,58.73,5.44S420.82,280.56,391.14,288.23Z"/><path class="cls-flowers-7" d="M453.17,183.26c7.63,29.69,5.15,56-5.44,58.72s-25.46-19.12-33.09-48.81-5.14-56,5.45-58.73S445.51,153.56,453.17,183.26Z"/><path class="cls-flowers-7" d="M486.21,311.73c7.63,29.69,5.19,56-5.45,58.72s-25.46-19.12-33.09-48.81-5.2-56,5.44-58.73S478.56,282,486.21,311.73Z"/><path class="cls-flowers-7" d="M497.39,303.31C471,287.72,454.17,267.4,459.72,258s31.52-4.49,57.91,11.11,43.23,35.92,37.68,45.37S523.79,318.91,497.39,303.31Z"/><path class="cls-flowers-7" d="M383.19,235.83c-26.38-15.59-43.22-35.92-37.67-45.36S377,186,403.43,201.58s43.23,35.91,37.69,45.36S409.6,251.43,383.19,235.83Z"/><path class="cls-flowers-7" d="M501.28,205.43c-15.6,26.4-35.91,43.22-45.37,37.68s-4.48-31.53,11.12-57.92,35.91-43.24,45.38-37.64S516.88,179.07,501.28,205.43Z"/><path class="cls-flowers-7" d="M433.8,319.66c-15.6,26.39-35.91,43.22-45.37,37.68s-4.48-31.52,11.12-57.92,35.91-43.22,45.37-37.69S449.4,293.26,433.8,319.66Z"/><path class="cls-flowers-8" d="M514.14,225.36c-23.58,19.56-48.37,28.63-55.41,20.18s6.41-31.18,30-50.77,48.36-28.63,55.41-20.18S537.72,205.77,514.14,225.36Z"/><path class="cls-flowers-8" d="M412.11,310.13c-23.58,19.55-48.37,28.63-55.42,20.17s6.41-31.22,30-50.77,48.37-28.63,55.42-20.18S435.7,290.54,412.11,310.13Z"/><path class="cls-flowers-8" d="M423.34,188.72c19.55,23.58,28.63,48.37,20.17,55.41s-31.18-6.41-50.78-30-28.62-48.37-20.17-55.42S403.74,165.13,423.34,188.72Z"/><path class="cls-flowers-8" d="M508.09,290.75c19.56,23.58,28.63,48.37,20.19,55.41s-31.19-6.4-50.78-30-28.63-48.37-20.18-55.41S488.51,267.18,508.09,290.75Z"/><path class="cls-flowers-8" d="M514.63,278.36c-30.53-2.83-54.47-14-53.45-24.92s26.58-17.5,57.1-14.7,54.47,14,53.47,24.92S545.15,281.18,514.63,278.36Z"/><path class="cls-flowers-8" d="M382.54,266.15c-30.53-2.82-54.46-14-53.45-24.92s26.58-17.49,57.12-14.7,54.46,14,53.45,24.92S413.08,269,382.54,266.15Z"/><path class="cls-flowers-8" d="M476.33,188.23c-2.82,30.54-14,54.47-24.92,53.46s-17.49-26.59-14.69-57.12,14-54.46,24.91-53.45S479.15,157.7,476.33,188.23Z"/><path class="cls-flowers-8" d="M464.12,320.32c-2.82,30.52-14,54.46-24.91,53.45s-17.5-26.58-14.7-57.11,14-54.46,24.92-53.46S466.94,289.82,464.12,320.32Z"/><path class="cls-flowers-6" d="M469,237.05a24.1,24.1,0,1,1-34-3.13,24.1,24.1,0,0,1,34,3.13Z"/></svg>