<svg id="Capa_1" data-name="Capa 1" xmlns="http://www.w3.org/2000/svg" xmlns:xlink="http://www.w3.org/1999/xlink" viewBox="0 0 2423.41 998"><defs><style>.cls-footer-flowers-1{fill:none;}.cls-footer-flowers-2{clip-path:url(#clip-path);}.cls-footer-flowers-3{fill:#557c63;}.cls-footer-flowers-4{fill:#78a88b;opacity:0.8;}.cls-footer-flowers-5{fill:#fdbe6d;}.cls-footer-flowers-6{fill:#f0f0f0;}</style><clipPath id="clip-path"><rect class="cls-footer-flowers-1" x="95.74" y="127" width="2217" height="776.08"/></clipPath></defs><title>PAI CERCS</title><g class="cls-footer-flowers-2"><path class="cls-footer-flowers-3" d="M2249.14,1383.36c-17.61-28.27-35.75-56.23-55.15-83.31-36.51-51-77.84-99.74-128.74-136.9-24.76-18.08-51.82-33.09-80.76-43.36-33.86-12-69.43-16.36-105.27-15.77-74.36,1.22-148.88,20.59-223,5.66-32.36-6.52-63.71-19.66-87.93-42.58s-39.38-53-52.36-83.25c-12.87-30-24-60.62-40.08-89.09a389.16,389.16,0,0,0-54.44-74.11,407.7,407.7,0,0,0-153.74-103.09C1167.52,679.84,1055,687.7,959.61,733.69h0S801,817.83,712,937.21c-101.37,136-200.59,171.57-289.16,154.79v362H2290C2277.4,1429.86,2263.52,1406.43,2249.14,1383.36Z"/><path class="cls-footer-flowers-4" d="M963.34,974.26c-67.12-50.94-147.57-81.13-230-96-44.38-8-89.45-12-134.52-13-47.89-1.07-95.65,2.48-143.52,2.63-80.82.26-175.1-15.35-220.82-90.48-21.52-35.36-29.79-76.72-39.55-116.4C186,624.78,175,588.75,153.83,557.55c-19.45-28.72-47.56-52.93-82.75-58.57-38.66-6.2-77.19,9.72-105.55,35.59-30.86,28.14-48.32,68.13-58.87,107.81-9.89,37.18-15.31,75.81-17.75,114.17-4.72,74,3.25,148.77,22.22,220.38A721.64,721.64,0,0,0,.23,1180.09c39.7,62.13,89.11,118.25,146.76,164.3,67.9,54.24,149.45,90.44,212.53,150.82a3.83,3.83,0,0,0,.29.28,188.19,188.19,0,0,1,45.26,68.82c18.55,48.54,37.86,130.39-17.81,176.46-82.66,68.4-330.67,58.63-398.45,290.72-8.21,28.14-15,55-20.7,80.62h1078V1057A419,419,0,0,0,963.34,974.26Z"/><path class="cls-footer-flowers-4" d="M2324.81,1100.12V403.91c-69.07,5.38-138.31,17.35-196.71,56.58-72.45,48.67-95.48,127.52-112.28,208.81-16.76,81.1-37.22,171.66-119.63,210-74,34.47-161.93,24.48-232.92,67.74-57.74,35.19-75.31,92.49-77,153Z"/><path class="cls-footer-flowers-3" d="M433,1021c-26.74,20.42-260.51-11.81-227.92-91.86,27.45-67.43,170.82,17.83,216.48,65.27-9.64-23.41-18.34-47-26.43-70.29q-11.61-33.4-21-67.42C332.37,863.54,128.89,782,177.23,714c38.68-54.42,142.83,38.53,185.72,98q-12.63-54.59-19.88-110.21c-33.16,10.46-244.54-89-189.92-155.49,45.64-55.54,155.06,64.64,186.21,124.32q-6.28-59.57-7-119.59C294.86,554,103.5,430,165.6,371.9c51.37-48,141.31,78.65,166.8,143.37q.5-33.47,2.62-66.88c-26.56-27-56-252.62,28.36-243,79.73,9.08,18.8,203.9-14.25,239.92q-2.46,37.74-2.75,75.53C374.63,462.38,488.85,333,534.24,391.94c51.11,66.39-149.85,163.53-187.88,156.38q.7,59.05,6.93,117.78c23.2-63.7,116.44-199.42,168-148.07C579.8,576.39,399,696.47,357,697.61a1177.56,1177.56,0,0,0,25.43,133.67c10.42-57.49,101.42-221.92,160-171.18C607,716,421.2,855.57,387.44,850.68q9.49,35.13,21.25,69.74c7.05,20.66,14.7,41.64,23.12,62.47,3.81-68.41,52.38-223.43,116.39-189.9,73.18,38.34-63.67,206.48-103.48,220.19,16.51,36.81,35.81,72.44,59.08,104.23,5.35,7.31-6.84,14.37-12.16,7.11C468.48,1092.88,449.4,1057.55,433,1021Z"/><path class="cls-footer-flowers-3" d="M588.94,1207c-32.76,7.7-232.85-117.4-170.35-177.1,52.64-50.28,148.56,86.2,170.8,148.16.79-25.29,2.52-50.42,4.66-75q3.08-35.22,8.47-70.09c-40.91-10.89-193.18-168.58-121.24-210.84,57.57-33.82,114.55,93.62,129.33,165.43q10.85-55,27-108.69c-34.53-4-186.67-181.32-109.63-219.61,64.37-32,115,122.45,119,189.65q18.63-56.91,42.56-112C654.09,724.35,530.27,532.87,610.7,505.3c66.53-22.81,96.73,129.6,93.5,199.08q14.14-30.33,29.76-60C720.78,608.94,786.24,391,859.31,434.33c69,40.93-66.31,193.73-111.2,213.07q-17.7,33.42-33.44,67.78c49.71-41.77,206.89-113.07,224.17-40.71C958.3,756,735.18,762.34,703.4,740.25q-23.52,54.18-41.88,110.3c47.24-48.63,187.86-134.29,213.85-66.35C904.9,861.41,690.76,897,652,880.82a1177.71,1177.71,0,0,0-31.5,132.38c33-48.19,183.37-161,216.05-90.69,36,77.46-190.64,128.71-219.44,110.43-3.81,24-6.91,48.07-9.16,72.32-2,21.74-3.63,44-4.48,66.47C635,1110.87,742.74,989.31,787.42,1046.1,838.5,1111,644.8,1208.43,602.87,1204.65c0,40.34,3,80.75,11.24,119.27,1.89,8.87-12.12,10.31-14,1.51C591.93,1287.08,589,1247.05,588.94,1207Z"/><path class="cls-footer-flowers-3" d="M2008.77,1077c-16.32,29.44-243.41,93.57-245.63,7.16-1.87-72.77,163.66-52.1,224.49-26.93-18.2-17.59-35.65-35.75-52.37-53.82q-24-25.95-46.22-53.37c-35.56,23-254.66,29.8-237.62-51.88,13.63-65.36,146.31-21.93,209.43,15.38q-33.45-45-62.38-93c-26.19,22.87-259.71,16.42-236.31-66.36,19.56-69.18,168-2.91,220.43,39.29q-29.64-52-54.34-106.77c-33.17,17.76-258.18-19.19-224.56-97.29,27.82-64.6,161,15.44,210.28,64.52q-13-30.86-24.41-62.32c-35.14-14.09-152.56-209-71.38-234,76.69-23.62,98.93,179.28,83.08,225.53q12.87,35.56,27.74,70.3c2.46-64.88,55.27-229.2,120.48-193.37,73.43,40.35-71.77,209.88-109.49,218.56q24.32,53.84,53.55,105.14c-4.27-67.66,26.78-229.37,94.55-203,77,30-40.54,212.49-78.51,230.34a1178.72,1178.72,0,0,0,76.87,112.29c-13.5-56.85,4-244,78-221,81.56,25.37-32.78,227.67-65.67,236.72q22.79,28.38,47.41,55.38c14.74,16.1,30.15,32.26,46.22,48-23.92-64.21-41.54-225.7,30.54-220.62,82.42,5.8,24.4,214.69-6.58,243.2,29.87,27.11,61.84,52,95.89,71.83,7.84,4.55-.51,15.9-8.29,11.38C2070.08,1128.56,2038.45,1103.84,2008.77,1077Z"/><path class="cls-footer-flowers-4" d="M1402.64,1293.28c-23.44,24.14-259.4,26.66-239-57.32,17.22-70.72,171.59-7.5,223.72,32.7-13-21.73-25.06-43.82-36.48-65.63q-16.4-31.33-30.65-63.6c-40.33,12.88-253.6-37.83-215.79-112.21,30.25-59.52,147,17.09,198.12,69.6q-20.52-52.14-35.88-106.09c-31.26,15.23-255-52.06-210.74-125.84,37-61.66,162.89,41.11,202.48,95.56q-15-58-24.52-117.26c-36.66,8.46-244.18-86-191.31-152.63,43.74-55.08,151.35,57,186.09,117.26q-4.45-33.17-7.26-66.53c-30.24-22.79-92.61-241.63-7.72-244.53C1294,494,1262.37,695.67,1235,736.16q3.12,37.7,8.39,75.11c19.34-62,113.28-206.77,166.84-155.14,60.33,58.14-124.14,183.81-162.82,182.33q9.39,58.32,24.2,115.48c13.56-66.42,85.81-214.39,144.33-171.18,66.5,49.11-94.69,194.49-136,201.79A1178.39,1178.39,0,0,0,1324.74,1113c1.84-58.4,67.66-234.44,133.07-192.86,72.09,45.82-91.17,211.18-125.28,211.31q14.57,33.36,31.28,65.85c10,19.4,20.67,39,32.07,58.39-6.3-68.23,18.92-228.71,87.17-205,78,27.15-32.59,213.6-70,233,21.75,34,46.08,66.39,73.78,94.4,6.37,6.45-4.66,15.22-11,8.82C1448.33,1359.11,1424.26,1327,1402.64,1293.28Z"/><path class="cls-footer-flowers-3" d="M2422.21,988.24c-18,28.46-248.33,79.59-245.64-6.81,2.27-72.76,166.36-42.72,225.66-14.14-17.17-18.58-33.56-37.71-49.23-56.7q-22.52-27.27-43.11-55.91C2273.08,875.6,2054,870,2075.6,789.38c17.33-64.47,147.32-13.58,208.22,27.25q-30.84-46.78-57-96.41c-27.45,21.35-260.23,1.64-232.16-79.68,23.45-67.95,167.86,6.64,217.83,51.75q-26.62-53.64-48.17-109.68c-34.13,15.84-256.68-33.83-218.67-109.89,31.43-62.92,159.84,24.56,206.26,76.36q-11.19-31.55-20.82-63.61c-34.29-16.06-140.44-217.33-58-237.68,77.91-19.23,88.58,184.61,70.13,229.88q10.83,36.24,23.7,71.77c6.15-64.64,68.2-225.69,131.27-186.22,71,44.45-83.58,205.46-121.72,212q21.21,55.13,47.49,108c-.43-67.79,39.76-227.47,105.92-197.26,75.21,34.33-52.54,209.83-91.47,225.5a1177.6,1177.6,0,0,0,70.37,116.47c-10.25-57.52,17.85-243.35,90.43-216.16,80,30-45.66,225.44-79,232.61q21.14,29.63,44.19,58c13.8,16.91,28.27,33.91,43.42,50.51-20.24-65.46-28.65-227.69,43-218.53,81.95,10.47,12.16,215.73-20.39,242.44,28.28,28.76,58.78,55.45,91.65,77.15,7.57,5-1.41,15.85-8.92,10.9C2480.5,1043.23,2450.32,1016.76,2422.21,988.24Z"/><path class="cls-footer-flowers-5" d="M191,1035.16c-25.52-12.06-42.72-29.26-38.39-38.41s28.52-6.77,54.05,5.29,42.72,29.26,38.4,38.41S216.56,1047.23,191,1035.16Z"/><path class="cls-footer-flowers-5" d="M80.6,983C55.07,970.9,37.88,953.7,42.2,944.55s28.52-6.78,54.05,5.29,42.72,29.26,38.4,38.41S106.13,995,80.6,983Z"/><path class="cls-footer-flowers-5" d="M186.3,945.11c-12.06,25.53-29.26,42.72-38.41,38.4s-6.77-28.53,5.29-54,29.27-42.72,38.41-38.4S198.37,919.58,186.3,945.11Z"/><path class="cls-footer-flowers-5" d="M105.81,941.17c-9.52-26.57-9.52-50.89,0-54.3s25,15.37,34.48,42,9.52,50.9,0,54.32S115.33,967.76,105.81,941.17Z"/><path class="cls-footer-flowers-5" d="M207.32,989.16c-26.58,9.52-50.9,9.51-54.31,0s15.38-25,42-34.49,50.9-9.51,54.31,0S233.9,979.64,207.32,989.16Z"/><path class="cls-footer-flowers-5" d="M92.32,1030.34c-26.58,9.52-50.9,9.51-54.31,0s15.37-25,42-34.48,50.9-9.52,54.31,0S118.9,1020.82,92.32,1030.34Z"/><path class="cls-footer-flowers-5" d="M204.72,1010.82c-28.24,0-51.13-8.2-51.13-18.32s22.89-18.32,51.13-18.32,51.13,8.2,51.13,18.32S233,1010.82,204.72,1010.82Z"/><path class="cls-footer-flowers-5" d="M82.57,1010.82c-28.24,0-51.13-8.2-51.13-18.32s22.89-18.32,51.13-18.32,51.13,8.2,51.13,18.32S110.8,1010.82,82.57,1010.82Z"/><path class="cls-footer-flowers-5" d="M162,931.43c0,28.23-8.2,51.12-18.32,51.12s-18.31-22.89-18.31-51.12,8.2-51.13,18.31-51.13S162,903.19,162,931.43Z"/><path class="cls-footer-flowers-5" d="M173.88,1048.64c-20-20-30.36-42-23.2-49.1s29.14,3.23,49.1,23.2,30.36,42,23.21,49.1S193.84,1068.61,173.88,1048.64Z"/><path class="cls-footer-flowers-5" d="M87.5,962.27c-20-20-30.35-42-23.2-49.11s29.14,3.23,49.11,23.2,30.35,41.95,23.2,49.11S107.47,982.23,87.5,962.27Z"/><path class="cls-footer-flowers-5" d="M199.78,962.27c-20,20-41.95,30.35-49.1,23.2s3.23-29.14,23.2-49.11,42-30.35,49.11-23.2S219.75,942.3,199.78,962.27Z"/><path class="cls-footer-flowers-5" d="M113.41,1048.65c-20,20-41.95,30.35-49.11,23.19s3.24-29.13,23.2-49.1,42-30.36,49.11-23.2S133.38,1028.68,113.41,1048.65Z"/><path class="cls-footer-flowers-6" d="M165.82,992.5a22.18,22.18,0,1,1-22.17-22.18A22.18,22.18,0,0,1,165.82,992.5Z"/><path class="cls-footer-flowers-5" d="M973.82,811.32c-25.53-12.07-42.72-29.26-38.4-38.41s28.53-6.78,54.05,5.28,42.73,29.27,38.4,38.42S999.35,823.39,973.82,811.32Z"/><path class="cls-footer-flowers-5" d="M863.38,759.12c-25.53-12.07-42.72-29.26-38.39-38.41s28.52-6.78,54,5.29,42.72,29.26,38.4,38.41S888.91,771.19,863.38,759.12Z"/><path class="cls-footer-flowers-5" d="M969.09,721.27C957,746.8,939.83,764,930.68,759.66s-6.78-28.52,5.29-54,29.26-42.72,38.41-38.4S981.16,695.74,969.09,721.27Z"/><path class="cls-footer-flowers-5" d="M916.89,831.71c-12.06,25.52-29.26,42.72-38.41,38.39s-6.78-28.52,5.29-54.05,29.26-42.72,38.41-38.4S929,806.18,916.89,831.71Z"/><path class="cls-footer-flowers-5" d="M929.77,832.33c-9.52-26.58-9.51-50.89,0-54.31s25,15.38,34.49,42,9.51,50.9,0,54.31S939.29,858.92,929.77,832.33Z"/><path class="cls-footer-flowers-5" d="M888.59,717.33c-9.52-26.58-9.51-50.9,0-54.31s25,15.38,34.49,42,9.51,50.9,0,54.31S898.11,743.92,888.59,717.33Z"/><path class="cls-footer-flowers-5" d="M990.11,765.31c-26.59,9.52-50.9,9.52-54.31,0s15.37-25,42-34.48,50.91-9.51,54.32,0S1016.69,755.8,990.11,765.31Z"/><path class="cls-footer-flowers-5" d="M875.1,806.5c-26.58,9.51-50.9,9.51-54.31,0s15.38-25,42-34.49,50.9-9.51,54.31,0S901.69,797,875.1,806.5Z"/><path class="cls-footer-flowers-5" d="M987.5,787c-28.23,0-51.12-8.2-51.12-18.32s22.89-18.32,51.12-18.32,51.13,8.2,51.13,18.32S1015.74,787,987.5,787Z"/><path class="cls-footer-flowers-5" d="M865.35,787c-28.23,0-51.13-8.2-51.13-18.32s22.9-18.32,51.13-18.32,51.13,8.2,51.13,18.32S893.59,787,865.35,787Z"/><path class="cls-footer-flowers-5" d="M944.75,707.58c0,28.24-8.2,51.13-18.32,51.13s-18.32-22.89-18.32-51.13,8.2-51.13,18.32-51.13S944.75,679.34,944.75,707.58Z"/><path class="cls-footer-flowers-5" d="M944.75,829.74c0,28.23-8.2,51.12-18.32,51.12S908.11,858,908.11,829.74s8.2-51.13,18.32-51.13S944.75,801.5,944.75,829.74Z"/><path class="cls-footer-flowers-5" d="M956.66,824.8c-20-20-30.35-41.95-23.2-49.11s29.15,3.24,49.11,23.2,30.36,42,23.2,49.11S976.63,844.76,956.66,824.8Z"/><path class="cls-footer-flowers-5" d="M870.29,738.42c-20-20-30.36-41.95-23.2-49.1s29.14,3.23,49.11,23.19,30.35,42,23.2,49.11S890.25,758.39,870.29,738.42Z"/><path class="cls-footer-flowers-5" d="M982.57,738.42c-20,20-42,30.36-49.11,23.2s3.24-29.14,23.2-49.1,42-30.36,49.11-23.2S1002.54,718.46,982.57,738.42Z"/><path class="cls-footer-flowers-5" d="M896.2,824.8c-20,20-42,30.35-49.11,23.2s3.23-29.14,23.2-49.11,42-30.35,49.11-23.2S916.16,804.83,896.2,824.8Z"/><path class="cls-footer-flowers-6" d="M948.61,768.66a22.18,22.18,0,1,1-22.18-22.18A22.18,22.18,0,0,1,948.61,768.66Z"/><path class="cls-footer-flowers-5" d="M1896,948c-25.53-12.07-42.72-29.26-38.4-38.41s28.52-6.78,54.05,5.28,42.72,29.27,38.4,38.42S1921.54,960.11,1896,948Z"/><path class="cls-footer-flowers-5" d="M1785.57,895.84c-25.53-12.07-42.72-29.26-38.4-38.41s28.53-6.78,54,5.29,42.73,29.26,38.4,38.4S1811.1,907.9,1785.57,895.84Z"/><path class="cls-footer-flowers-5" d="M1891.28,858c-12.07,25.52-29.27,42.71-38.41,38.39s-6.78-28.52,5.28-54,29.27-42.72,38.41-38.4S1903.34,832.46,1891.28,858Z"/><path class="cls-footer-flowers-5" d="M1839.08,968.43c-12.07,25.52-29.27,42.72-38.41,38.39s-6.78-28.52,5.29-54.05,29.26-42.72,38.41-38.4S1851.14,942.9,1839.08,968.43Z"/><path class="cls-footer-flowers-5" d="M1852,969.05c-9.52-26.58-9.52-50.89,0-54.31s25,15.38,34.48,42,9.52,50.9,0,54.31S1861.48,995.64,1852,969.05Z"/><path class="cls-footer-flowers-5" d="M1810.78,854.05c-9.52-26.58-9.52-50.9,0-54.31s25,15.37,34.48,42,9.52,50.9,0,54.31S1820.3,880.63,1810.78,854.05Z"/><path class="cls-footer-flowers-5" d="M1912.29,902c-26.58,9.52-50.9,9.52-54.31,0s15.38-25,42-34.48,50.9-9.51,54.31,0S1938.88,892.51,1912.29,902Z"/><path class="cls-footer-flowers-5" d="M1797.29,943.22c-26.58,9.51-50.9,9.51-54.31,0s15.38-25,42-34.48,50.9-9.51,54.31,0S1823.87,933.7,1797.29,943.22Z"/><path class="cls-footer-flowers-5" d="M1909.69,923.7c-28.23,0-51.13-8.2-51.13-18.32s22.9-18.32,51.13-18.32,51.13,8.2,51.13,18.32S1937.93,923.7,1909.69,923.7Z"/><path class="cls-footer-flowers-5" d="M1787.54,923.7c-28.24,0-51.13-8.2-51.13-18.32s22.89-18.32,51.13-18.32,51.13,8.2,51.13,18.32S1815.78,923.7,1787.54,923.7Z"/><path class="cls-footer-flowers-5" d="M1866.94,844.3c0,28.24-8.21,51.13-18.32,51.13s-18.32-22.89-18.32-51.13,8.2-51.13,18.32-51.13S1866.94,816.06,1866.94,844.3Z"/><path class="cls-footer-flowers-5" d="M1866.94,966.45c0,28.24-8.21,51.13-18.32,51.13s-18.32-22.89-18.32-51.13,8.2-51.12,18.32-51.12S1866.94,938.22,1866.94,966.45Z"/><path class="cls-footer-flowers-5" d="M1878.85,961.52c-20-20-30.35-41.95-23.2-49.11s29.14,3.24,49.11,23.2,30.35,42,23.2,49.11S1898.82,981.48,1878.85,961.52Z"/><path class="cls-footer-flowers-5" d="M1792.47,875.14c-20-20-30.35-41.95-23.19-49.1s29.14,3.23,49.1,23.19,30.36,42,23.2,49.11S1812.44,895.11,1792.47,875.14Z"/><path class="cls-footer-flowers-5" d="M1904.76,875.14c-20,20-42,30.36-49.11,23.2s3.23-29.14,23.2-49.1,42-30.36,49.11-23.2S1924.72,855.18,1904.76,875.14Z"/><path class="cls-footer-flowers-5" d="M1818.38,961.52c-20,20-42,30.35-49.1,23.2s3.23-29.14,23.2-49.11,42-30.35,49.1-23.2S1838.35,941.55,1818.38,961.52Z"/><path class="cls-footer-flowers-6" d="M1870.8,905.38a22.18,22.18,0,1,1-22.18-22.18A22.18,22.18,0,0,1,1870.8,905.38Z"/></g></svg>