<svg id="Capa_1" data-name="Capa 1" xmlns="http://www.w3.org/2000/svg" xmlns:xlink="http://www.w3.org/1999/xlink" viewBox="0 0 3316.82 786.16"><defs><style>.cls-green-footer-1{fill:none;}.cls-green-footer-2{clip-path:url(#clip-path);}.cls-green-footer-3{fill:#557c63;}.cls-green-footer-4{fill:#78a88b;opacity:0.8;isolation:isolate;}.cls-green-footer-5{fill:#fdbe6d;}.cls-green-footer-6{fill:#f0f0f0;}</style><clipPath id="clip-path"><rect class="cls-green-footer-1" y="-373.09" width="3316.58" height="1159.25"/></clipPath></defs><title>PAI CERCS</title><g class="cls-green-footer-2"><path class="cls-green-footer-3" d="M3886.39,1542.89c-32.31-42.23-65.59-84-101.19-124.45-67-76.18-142.82-149-236.21-204.49-45.43-27-95.09-49.42-148.19-64.76-62.12-17.93-127.39-24.44-193.15-23.56-136.44,1.82-273.17,30.75-409.17,8.45-59.37-9.74-116.89-29.36-161.33-63.6s-72.26-79.17-96.07-124.35c-23.62-44.81-44-90.55-73.54-133.08a606,606,0,0,0-99.89-110.7c-78.28-68.25-174.8-120.94-282.09-154-183.76-56.35-390.21-44.61-565.24,24.09h0s-291,125.68-454.32,304c-186,203.15-368,256.28-530.56,231.21V1648.4H3961.36C3938.24,1612.34,3912.78,1577.35,3886.39,1542.89Z"/><path class="cls-green-footer-4" d="M1296,789.44C1195.69,713.35,1075.52,668.25,952.4,646c-66.29-11.95-133.62-17.92-200.94-19.42-71.53-1.59-142.87,3.71-214.38,3.93-120.72.39-261.55-22.93-329.84-135.15-32.15-52.82-44.5-114.6-59.08-173.87C134.82,267.41,118.39,213.59,86.77,167c-29-42.9-71-79.06-123.61-87.49C-94.58,70.24-152.14,94-194.5,132.66c-46.09,42-72.17,101.77-87.93,161-14.78,55.54-22.87,113.24-26.52,170.54-7.05,110.54,4.86,222.22,33.19,329.19a1078.23,1078.23,0,0,0,133.09,303.46c59.31,92.81,133.11,176.63,219.22,245.42C178,1423.33,299.79,1477.4,394,1567.59a5.77,5.77,0,0,0,.44.42,281.08,281.08,0,0,1,67.6,102.8c27.71,72.5,56.56,194.77-26.6,263.58C312,2036.56-58.48,2022-159.72,2368.65c-12.27,42-22.41,82.15-30.92,120.42H1419.59V913A625.93,625.93,0,0,0,1296,789.44Z"/><path class="cls-green-footer-4" d="M3329.61,1080.48V40.54c-103.17,8-206.6,25.92-293.83,84.51-108.22,72.7-142.62,190.48-167.72,311.91-25,121.14-55.59,256.41-178.69,313.68-110.54,51.49-241.88,36.57-347.92,101.18-86.24,52.57-112.49,138.16-115,228.54Z"/><path class="cls-green-footer-3" d="M479.07,1228.44c-39.94,30.5-389.13-17.64-340.45-137.22,41-100.72,255.16,26.64,323.36,97.5-14.4-35-27.39-70.2-39.48-105Q405.16,1033.84,391.14,983C328.76,993.24,24.82,871.44,97,769.87c57.78-81.29,213.35,57.55,277.42,146.38q-18.87-81.54-29.7-164.62C295.21,767.25-20.53,618.69,61.05,519.37c68.18-83,231.62,96.55,278.15,185.7q-9.37-89-10.46-178.64c-56,4.44-341.85-180.78-249.09-267.57C156.38,187.17,290.73,376.34,328.8,473q.75-50,3.92-99.9C293,332.79,249.07-4.23,375.08,10.14c119.09,13.57,28.08,304.57-21.29,358.38q-3.68,56.37-4.1,112.82C391.88,394,562.5,200.76,630.3,288.8,706.64,388,406.46,533.07,349.66,522.39q1,88.2,10.35,175.93C394.66,603.17,533.94,400.44,611,477.14c87.4,87.17-182.67,266.54-245.4,268.24a1758.08,1758.08,0,0,0,38,199.67c15.57-85.87,151.5-331.49,239-255.7C739,772.85,461.45,981.33,411,974q14.18,52.47,31.74,104.17c10.53,30.86,22,62.2,34.53,93.31,5.69-102.18,78.24-333.74,173.86-283.66,109.31,57.27-95.11,308.43-154.57,328.91,24.66,55,53.49,108.2,88.25,155.69,8,10.92-10.22,21.46-18.17,10.62C532.07,1335.81,503.57,1283,479.07,1228.44Z"/><path class="cls-green-footer-3" d="M736.7,1240.13c-48.93,11.5-347.81-175.36-254.45-264.54,78.63-75.1,221.91,128.76,255.13,221.31,1.18-37.77,3.76-75.31,7-112q4.59-52.61,12.65-104.69c-61.11-16.27-288.56-251.81-181.1-314.94,86-50.51,171.1,139.85,193.18,247.11Q785.29,830.2,809.4,750c-51.58-6-278.83-270.84-163.75-328,96.15-47.8,171.77,182.91,177.75,283.29q27.83-85,63.57-167.3c-53-18.76-237.9-304.78-117.76-346,99.37-34.07,144.48,193.58,139.66,297.37Q930,444,953.32,399.73C933.64,346.8,1031.41,21.26,1140.56,86c103.07,61.14-99,289.38-166.1,318.27q-26.44,49.92-50,101.24c74.25-62.39,309-168.9,334.85-60.81,29.06,121.78-304.21,131.25-351.69,98.26q-35.13,80.92-62.55,164.75c70.56-72.63,280.61-200.59,319.43-99.1,44.11,115.33-275.76,168.49-333.65,144.32a1757.14,1757.14,0,0,0-47,197.74c49.29-72,273.9-240.49,322.71-135.47,53.78,115.71-284.76,192.26-327.78,165-5.69,35.85-10.32,71.81-13.68,108-3,32.47-5.42,65.72-6.69,99.29,47.09-90.91,208-272.49,274.77-187.66,76.3,96.94-213,242.48-275.67,236.83,0,60.26,4.48,120.62,16.79,178.16,2.82,13.25-18.1,15.4-20.91,2.25C741.17,1359.75,736.79,1300,736.7,1240.13Z"/><path class="cls-green-footer-3" d="M2879.46,1183c-24.38,44-363.59,139.77-366.9,10.7-2.8-108.7,244.46-77.82,335.32-40.23-27.18-26.27-53.25-53.4-78.22-80.39q-35.85-38.76-69-79.72c-53.12,34.36-380.39,44.51-354.94-77.49,20.36-97.63,218.54-32.76,312.83,23q-50-67.21-93.18-138.92c-39.12,34.16-387.93,24.53-353-99.12,29.22-103.34,250.94-4.35,329.26,58.69q-44.28-77.67-81.17-159.49c-49.55,26.53-385.65-28.66-335.43-145.32,41.56-96.49,240.49,23.06,314.1,96.37Q2419.7,505,2402.65,458C2350.16,437,2174.77,145.82,2296,108.48c114.55-35.29,147.77,267.79,124.1,336.87q19.22,53.13,41.43,105c3.68-96.91,82.56-342.36,180-288.84C2751.21,321.79,2534.32,575,2478,588q36.33,80.41,80,157c-6.38-101.07,40-342.62,141.23-303.23,115,44.82-60.56,317.4-117.27,344.07a1761,1761,0,0,0,114.82,167.73c-20.17-84.92,6-364.47,116.51-330.11,121.83,37.89-49,340.07-98.09,353.59q34,42.39,70.81,82.72c22,24,45,48.19,69,71.7C2819.29,1035.6,2793,794.38,2900.64,802c123.11,8.67,36.45,320.69-9.83,363.28,44.62,40.49,92.37,77.67,143.24,107.29,11.71,6.8-.77,23.75-12.39,17C2971,1260.06,2923.79,1223.13,2879.46,1183Z"/><path class="cls-green-footer-4" d="M1857.8,1185.28c-27.87,28.7-308.37,31.69-284.12-68.14,20.47-84.07,204-8.92,266,38.87-15.45-25.83-29.79-52.09-43.37-78q-19.48-37.24-36.43-75.6c-47.94,15.31-301.47-45-256.53-133.4,36-70.75,174.75,20.32,235.52,82.74q-24.39-62-42.65-126.12C1659,843.72,1393,763.73,1445.65,676c44-73.3,193.64,48.87,240.7,113.6q-17.83-69-29.15-139.4c-43.58,10.06-290.27-102.23-227.42-181.44,52-65.48,179.92,67.76,221.22,139.4q-5.3-39.43-8.63-79.09c-35.95-27.1-110.1-287.25-9.18-290.69,95.46-3.29,57.86,236.45,25.32,284.59q3.71,44.82,10,89.29c23-73.71,134.67-245.81,198.34-184.43,71.72,69.12-147.58,218.51-193.56,216.75q11.16,69.33,28.77,137.28c16.12-79,102-254.86,171.58-203.5,79.05,58.39-112.57,231.21-161.68,239.89A1401.91,1401.91,0,0,0,1765.19,971c2.19-69.43,80.43-278.7,158.19-229.27,85.7,54.47-108.38,251-148.93,251.2q17.33,39.66,37.19,78.28c11.88,23.06,24.57,46.36,38.12,69.41-7.49-81.11,22.49-271.88,103.63-243.7,92.72,32.28-38.75,253.93-83.22,277,25.86,40.42,54.78,78.92,87.71,112.22,7.57,7.67-5.54,18.09-13.08,10.48C1912.11,1263.54,1883.5,1225.36,1857.8,1185.28Z"/><path class="cls-green-footer-4" d="M2092.91,1330.8c-34.57,20.12-305.5-52.6-255.24-142.2,42.37-75.44,198.84,46.39,245.63,109.12-7.92-29-14.64-58.2-20.73-86.82q-8.73-41.13-14.71-82.63c-50.29,1.82-278.19-124.57-211.08-197.6,53.7-58.45,162.81,66.66,204.51,143.16q-6.8-66.27-7.09-132.95c-40.66,7.42-275.23-141.3-200.93-211.58,62.12-58.73,173.31,99.25,201.18,174.27q1.41-71.21,9.5-142.09c-44.68-2.06-252-176.69-170.1-236,67.72-49,155,113.75,175.46,193.86q5.54-39.39,13-78.49c-27.32-35.77-28.6-306.28,69.51-282.4,92.81,22.57-8,243.3-52.32,280.88Q2071,683.46,2065,728c42-64.78,195.94-200.41,240.71-124.15,50.43,85.89-201,170.65-244.82,156.56q-7.93,69.78-9.29,140c36.8-71.69,166.92-217.93,220.07-149.71,60.39,77.52-170.72,192.3-220.35,187.42a1402.23,1402.23,0,0,0,10.13,161.41c20.82-66.27,152.58-246.71,214.13-178.15,67.85,75.55-172,212.54-211.12,201.76q6,42.87,14.71,85.41c5.23,25.41,11.17,51.27,18,77.12,14.65-80.13,94.94-255.76,165.48-206.75,80.59,56.07-105.75,234.08-154.79,244.3,14,45.9,31.48,90.77,54.21,131.71,5.23,9.43-10.21,15.93-15.42,6.57C2124.12,1420.8,2106.85,1376.33,2092.91,1330.8Z"/><path class="cls-green-footer-3" d="M3344.74,1165.58c-31.41,39.29-381.78,77.24-363.55-50.59,15.36-107.64,254-36,337.34,16.2-22.42-30.42-43.6-61.52-63.74-92.29q-28.93-44.21-54.79-90.11c-58.09,25-382.42-19.42-337.06-135.55,36.35-92.86,220.95,4.11,304.63,74.76q-38.07-74.52-68.74-152.52c-44.27,27.17-386.6-40.45-331.53-156.55,46-97,248.11,37.52,314.86,112.72q-30.67-84-53.44-170.77c-53.28,17.9-375.49-92.52-306.53-199.17,57-88.24,233.25,62.8,293.63,147.35q-11.42-48.69-20.42-97.87C2947.14,341.7,2822.71,25.4,2948.46,8.78c118.83-15.71,101.08,288.66,66.23,352.83q10.11,55.59,23.36,110.46c19.78-94.95,138.44-323.82,225.57-254.83,98.08,77.69-157.94,291.25-215.64,294.67q22.39,85.35,52.7,168.17c10.54-100.71,96.52-331.15,189.76-275.4,106,63.36-112.58,302.86-173,319.7a1759.41,1759.41,0,0,0,85.28,184.51c-5.74-87.08,66.6-358.33,169.88-306C3486.46,660.6,3267.7,930.05,3217,935.2q26.51,47.47,56.05,93.39c17.7,27.37,36.38,55,56.14,82.14-19.27-100.52-5-342.75,99.84-317.35,119.94,29-17.49,322.28-70.22,356.57,37.25,47.36,78.13,92,123.35,129.64,10.42,8.67-4.7,23.3-15,14.71C3422.22,1256.82,3381.78,1212.55,3344.74,1165.58Z"/><path class="cls-green-footer-5" d="M785.31,839.54c-38.12-18-63.82-43.71-57.35-57.37s42.6-10.12,80.74,7.9,63.81,43.7,57.36,57.37S823.48,857.57,785.31,839.54Z"/><path class="cls-green-footer-5" d="M620.4,761.63c-38.14-18.08-63.81-43.77-57.36-57.44s42.6-10.12,80.74,7.91,63.81,43.7,57.35,57.37S658.53,779.55,620.4,761.63Z"/><path class="cls-green-footer-5" d="M778.28,705c-18,38.13-43.7,63.81-57.37,57.36s-10.11-42.62,7.9-80.66,43.72-63.81,57.38-57.36S796.31,666.9,778.28,705Z"/><path class="cls-green-footer-5" d="M658.05,699.14c-14.22-39.68-14.22-76,0-81.1s37.35,23,51.51,62.73,14.22,76,0,81.14S672.28,738.86,658.05,699.14Z"/><path class="cls-green-footer-5" d="M809.68,770.83c-39.7,14.22-76,14.2-81.12,0s23-37.34,62.73-51.52,76-14.21,81.13,0S849.39,756.61,809.68,770.83Z"/><path class="cls-green-footer-5" d="M637.9,832.34c-39.7,14.22-76,14.21-81.12,0s23-37.34,62.74-51.5,76-14.22,81.12,0S677.61,818.12,637.9,832.34Z"/><path class="cls-green-footer-5" d="M805.8,803.18c-42.18,0-76.38-12.25-76.38-27.36s34.2-27.37,76.38-27.37,76.37,12.25,76.37,27.37S848,803.18,805.8,803.18Z"/><path class="cls-green-footer-5" d="M623.34,803.18c-42.18,0-76.37-12.25-76.37-27.36s34.19-27.37,76.37-27.37,76.37,12.25,76.37,27.37S665.51,803.18,623.34,803.18Z"/><path class="cls-green-footer-5" d="M742,684.6c0,42.16-12.25,76.35-27.37,76.35s-27.35-34.19-27.35-76.35,12.25-76.38,27.35-76.38S742,642.41,742,684.6Z"/><path class="cls-green-footer-5" d="M759.73,859.67c-29.87-29.87-45.35-62.73-34.65-73.34s43.53,4.83,73.34,34.66,45.35,62.73,34.67,73.34S789.55,889.5,759.73,859.67Z"/><path class="cls-green-footer-5" d="M630.7,730.66c-29.87-29.87-45.33-62.73-34.65-73.35s43.53,4.82,73.36,34.65,45.33,62.66,34.65,73.36S660.53,760.48,630.7,730.66Z"/><path class="cls-green-footer-5" d="M798.42,730.66c-29.87,29.88-62.66,45.34-73.34,34.66s4.82-43.53,34.65-73.36,62.74-45.33,73.36-34.65S828.25,700.83,798.42,730.66Z"/><path class="cls-green-footer-5" d="M669.41,859.69c-29.88,29.87-62.66,45.33-73.36,34.64s4.84-43.51,34.65-73.34,62.74-45.35,73.36-34.66S699.24,829.86,669.41,859.69Z"/><path class="cls-green-footer-6" d="M747.69,775.82a33.13,33.13,0,1,1-33.13-33.13h0A33.12,33.12,0,0,1,747.69,775.82Z"/><path class="cls-green-footer-5" d="M-17.53,779.56c-40.06-13.17-68.71-35.5-64-49.86s41.05-15.29,81-2.11,68.72,35.51,64,49.86S22.54,792.75-17.53,779.56Z"/><path class="cls-green-footer-5" d="M-26.52,659.52c37.63-19,73.68-23.49,80.49-10s-18.18,39.9-55.9,58.86-73.7,23.49-80.52,10S-64.18,678.54-26.52,659.52Z"/><path class="cls-green-footer-5" d="M-1.73,741c-41.84,5.2-77.28-2.73-79.15-17.73s30.55-31.36,72.4-36.57,77.3,2.73,79.17,17.72S40.13,735.81-1.73,741Z"/><path class="cls-green-footer-5" d="M-61.18,636.27c26-33.33,56.67-52.73,68.52-43.44S7.93,636.62-18,669.9s-56.59,52.72-68.52,43.45S-87.08,669.55-61.18,636.27Z"/><path class="cls-green-footer-5" d="M-40.48,802.71c-33.33-26-52.72-56.59-43.44-68.51s43.79-.58,77.08,25.34S45.89,816.2,36.6,828.06-7.19,828.63-40.48,802.71Z"/><path class="cls-green-footer-5" d="M3389.08,494.23c25,34,35.33,68.8,23.14,77.75s-42.28-11.37-67.25-45.36-35.33-68.8-23.16-77.76S3364.08,460.21,3389.08,494.23Z"/><path class="cls-green-footer-5" d="M3331.26,615.88c34-25,68.8-35.33,77.75-23.15s-11.38,42.29-45.32,67.19-68.82,35.32-77.75,23.15S3297.26,640.85,3331.26,615.88Z"/><path class="cls-green-footer-5" d="M3335,543.07c41.69,6.38,73.63,23.68,71.35,38.6s-38,21.91-79.69,15.46-73.63-23.68-71.35-38.59S3293.26,536.69,3335,543.07Z"/><path class="cls-green-footer-5" d="M3353.76,516.46c37.1,20.07,61.35,47.11,54.15,60.41s-43.09,7.8-80.19-12.27-61.35-47.11-54.16-60.41S3316.6,496.36,3353.76,516.46Z"/><path class="cls-green-footer-5" d="M3325.75,583.76c40.49-12.07,76.68-10.06,81,4.41s-24.95,36-65.38,48-76.75,10-81-4.42S3285.32,595.8,3325.75,583.76Z"/><path class="cls-green-footer-5" d="M1957.68,851.08c-28,31.51-59.89,48.93-71.19,38.88s2.28-43.72,30.3-75.25,59.89-48.94,71.19-38.9S1985.72,819.51,1957.68,851.08Z"/><path class="cls-green-footer-5" d="M1826.63,820c31.53,28,48.94,59.89,38.9,71.19s-43.74-2.28-75.18-30.27-48.93-59.91-38.9-71.2S1795.11,791.94,1826.63,820Z"/><path class="cls-green-footer-5" d="M1898.6,808.35c2.48,42.1-7.76,77-22.82,77.85s-29.37-32.55-31.79-74.7,7.76-77,22.83-77.85S1896.13,766.25,1898.6,808.35Z"/><path class="cls-green-footer-5" d="M1928.56,821.18c-11.87,40.48-33.24,69.84-47.75,65.59s-16.64-40.51-4.77-81,33.24-69.84,47.75-65.59S1940.44,780.64,1928.56,821.18Z"/><path class="cls-green-footer-5" d="M1856.89,807.86c20.26,37.07,25.87,72.88,12.62,80.13s-40.41-16.88-60.64-53.9-25.85-73-12.62-80.14S1836.66,770.84,1856.89,807.86Z"/><path class="cls-green-footer-5" d="M1311.61,649.1c-38.14-18-63.82-43.71-57.36-57.38s42.61-10.13,80.73,7.89,63.83,43.72,57.36,57.39S1349.74,667.13,1311.61,649.1Z"/><path class="cls-green-footer-5" d="M1146.64,571.12c-38.13-18-63.81-43.7-57.34-57.37s42.6-10.13,80.66,7.9,63.81,43.71,57.36,57.38S1184.77,589.15,1146.64,571.12Z"/><path class="cls-green-footer-5" d="M1304.54,514.59c-18.06,38.13-43.7,63.82-57.37,57.34s-10.13-42.6,7.9-80.66,43.71-63.81,57.37-57.36S1322.57,476.45,1304.54,514.59Z"/><path class="cls-green-footer-5" d="M1226.57,679.55c-18,38.12-43.71,63.81-57.37,57.35s-10.13-42.6,7.9-80.74,43.7-63.81,57.37-57.36S1244.66,641.42,1226.57,679.55Z"/><path class="cls-green-footer-5" d="M1245.81,680.48c-14.22-39.7-14.21-76,0-81.12s37.34,23,51.52,62.73,14.2,76,0,81.13S1260,720.2,1245.81,680.48Z"/><path class="cls-green-footer-5" d="M1184.3,508.7c-14.22-39.7-14.21-76,0-81.12s37.34,23,51.52,62.73,14.2,76,0,81.13S1198.52,548.42,1184.3,508.7Z"/><path class="cls-green-footer-5" d="M1335.94,580.37c-39.72,14.22-76,14.22-81.12,0s23-37.34,62.73-51.5,76-14.21,81.14,0S1375.64,566.16,1335.94,580.37Z"/><path class="cls-green-footer-5" d="M1164.15,641.9c-39.71,14.2-76,14.2-81.13,0s23-37.35,62.74-51.52,76-14.21,81.12,0S1203.86,627.71,1164.15,641.9Z"/><path class="cls-green-footer-5" d="M1332,612.77c-42.17,0-76.36-12.25-76.36-27.37S1289.87,558,1332,558s76.37,12.25,76.37,27.36S1374.22,612.77,1332,612.77Z"/><path class="cls-green-footer-5" d="M1149.58,612.77c-42.17,0-76.37-12.25-76.37-27.37s34.2-27.36,76.37-27.36S1226,570.29,1226,585.4,1191.77,612.77,1149.58,612.77Z"/><path class="cls-green-footer-5" d="M1268.18,494.14c0,42.18-12.24,76.37-27.36,76.37s-27.37-34.19-27.37-76.37,12.25-76.38,27.37-76.38S1268.18,452,1268.18,494.14Z"/><path class="cls-green-footer-5" d="M1268.18,676.61c0,42.17-12.24,76.36-27.36,76.36s-27.37-34.15-27.37-76.36,12.25-76.37,27.37-76.37S1268.18,634.43,1268.18,676.61Z"/><path class="cls-green-footer-5" d="M1286,669.23c-29.87-29.87-45.33-62.66-34.65-73.36s43.54,4.84,73.36,34.66,45.35,62.74,34.65,73.36S1315.8,699.05,1286,669.23Z"/><path class="cls-green-footer-5" d="M1157,540.2c-29.87-29.87-45.35-62.66-34.65-73.34s43.52,4.83,73.35,34.64,45.34,62.74,34.66,73.36S1186.78,570,1157,540.2Z"/><path class="cls-green-footer-5" d="M1324.68,540.2c-29.88,29.88-62.74,45.35-73.36,34.66s4.84-43.53,34.65-73.34,62.74-45.35,73.36-34.66S1354.51,510.39,1324.68,540.2Z"/><path class="cls-green-footer-5" d="M1195.66,669.23c-29.87,29.88-62.73,45.34-73.35,34.66s4.82-43.53,34.65-73.36,62.74-45.34,73.36-34.66S1225.48,639.4,1195.66,669.23Z"/><path class="cls-green-footer-6" d="M1274,585.37a33.13,33.13,0,1,1-33.13-33.13h0A33.13,33.13,0,0,1,1274,585.37Z"/><path class="cls-green-footer-5" d="M2524.13,775.35c-38.13-18-63.81-43.71-57.35-57.38s42.61-10.13,80.66,7.9,63.82,43.71,57.36,57.36S2562.27,793.36,2524.13,775.35Z"/><path class="cls-green-footer-5" d="M2682,718.82c-18,38.12-43.73,63.8-57.38,57.35s-10.13-42.6,7.89-80.66,43.72-63.82,57.37-57.36S2700.05,680.67,2682,718.82Z"/><path class="cls-green-footer-5" d="M2561.79,712.92c-14.22-39.7-14.22-76,0-81.12s37.34,23,51.51,62.74,14.22,76,0,81.12S2576,752.63,2561.79,712.92Z"/><path class="cls-green-footer-5" d="M2713.42,784.55c-39.7,14.22-76,14.22-81.12,0s23-37.35,62.73-51.51,76-14.2,81.13,0S2753.14,770.37,2713.42,784.55Z"/><path class="cls-green-footer-5" d="M2541.64,846.12c-39.7,14.2-76,14.2-81.12,0s23-37.35,62.73-51.51,76-14.2,81.13,0S2581.34,831.9,2541.64,846.12Z"/><path class="cls-green-footer-5" d="M2709.54,817c-42.17,0-76.38-12.25-76.38-27.36s34.21-27.37,76.38-27.37,76.37,12.25,76.37,27.37S2751.72,817,2709.54,817Z"/><path class="cls-green-footer-5" d="M2527.08,817c-42.19,0-76.38-12.25-76.38-27.36s34.19-27.37,76.38-27.37,76.37,12.25,76.37,27.37S2569.26,817,2527.08,817Z"/><path class="cls-green-footer-5" d="M2645.68,698.36c0,42.18-12.26,76.37-27.37,76.37S2591,740.54,2591,698.36,2603.2,622,2618.31,622,2645.68,656.18,2645.68,698.36Z"/><path class="cls-green-footer-5" d="M2534.44,744.43c-29.87-29.88-45.33-62.67-34.64-73.35s43.53,4.83,73.34,34.64,45.35,62.74,34.66,73.36S2564.27,774.26,2534.44,744.43Z"/><path class="cls-green-footer-5" d="M2702.17,744.43c-29.87,29.87-62.73,45.34-73.36,34.65s4.83-43.53,34.66-73.34,62.74-45.35,73.36-34.66S2732,714.61,2702.17,744.43Z"/><path class="cls-green-footer-6" d="M2651.44,789.6a33.13,33.13,0,1,1-33.13-33.14,33.13,33.13,0,0,1,33.13,33.14Z"/></g></svg>