<svg id="Capa_1" data-name="Capa 1" xmlns="http://www.w3.org/2000/svg" viewBox="0 0 783 714"><defs><style>.cls-flowers-1{fill:#78a88b;opacity:0.8;}.cls-flowers-2{fill:#557c63;}.cls-flowers-3{fill:#e96352;}.cls-flowers-4{fill:#f7876e;}.cls-flowers-5{fill:#e0473b;}.cls-flowers-6{fill:#fefefc;}.cls-flowers-7{fill:#f9ca6d;}.cls-flowers-8{fill:#fdbe6d;}</style></defs><title>PAI CERCS</title><path class="cls-flowers-1" d="M495.8,612.77c16.63-23,28.43-50.71,37.72-78.06,1.28-.11,3.11-.31,5.35-.69a117.91,117.91,0,0,0,18-4.47,152.48,152.48,0,0,0,22.83-9.76,181,181,0,0,0,23.42-14.87,176.44,176.44,0,0,0,20.82-18.35c3.12-3.22,6-6.47,8.64-9.71s5-6.46,7.1-9.51,3.92-6,5.5-8.75,2.8-5.18,3.78-7.29a62.46,62.46,0,0,0,2.88-7,60.36,60.36,0,0,0-7.49.82c-2.31.35-5,.9-8.09,1.62s-6.37,1.69-9.91,2.83-7.3,2.53-11.12,4.19-7.78,3.49-11.73,5.59a174.46,174.46,0,0,0-23.39,14.9,179,179,0,0,0-20.79,18.38,148.6,148.6,0,0,0-15.74,19.22c-2.07,3-3.86,5.92-5.39,8.6.64-2.1,1.29-4.19,1.93-6.29A571.56,571.56,0,0,0,555,452.8c1-.13,2.07-.29,3.34-.5a116.11,116.11,0,0,0,18-4.49,150.83,150.83,0,0,0,22.84-9.75,179.14,179.14,0,0,0,23.42-14.87,172.86,172.86,0,0,0,20.81-18.33c3.12-3.22,6-6.48,8.64-9.72s5-6.46,7.1-9.52,3.93-6,5.5-8.73,2.81-5.19,3.79-7.3a62,62,0,0,0,2.88-7,61.81,61.81,0,0,0-7.48.8c-2.33.38-5.07.91-8.09,1.63s-6.37,1.68-9.94,2.84-7.27,2.53-11.11,4.17-7.77,3.52-11.72,5.6a175.45,175.45,0,0,0-23.38,14.91,178.16,178.16,0,0,0-20.81,18.35,150.84,150.84,0,0,0-15.73,19.25c-2.21,3.22-4.1,6.3-5.72,9.11q5-30.4,7-61.18c.94-.43,2-.92,3.21-1.53a121.57,121.57,0,0,0,15.79-9.74,149,149,0,0,0,18.81-16.22,176.58,176.58,0,0,0,17.82-21.26,173.22,173.22,0,0,0,14.3-23.77c2-4,3.76-8,5.29-11.86s2.79-7.67,3.9-11.22,1.93-6.94,2.58-10,1.13-5.81,1.41-8.1a60,60,0,0,0,.62-7.52,63.84,63.84,0,0,0-6.89,3c-2.09,1.05-4.51,2.39-7.21,4s-5.55,3.51-8.6,5.68-6.18,4.64-9.32,7.36-6.35,5.69-9.5,8.87a178.31,178.31,0,0,0-32,45.09,149.58,149.58,0,0,0-9,22.64q.76-25.89-.3-51.82a120.76,120.76,0,0,0,4.18-15.34,152,152,0,0,0,2.8-24.69,178.11,178.11,0,0,0-6.93-54.89c-1.26-4.29-2.66-8.4-4.16-12.29s-3.16-7.53-4.75-10.9-3.29-6.4-4.88-9.09-3.1-5-4.47-6.91a53.81,53.81,0,0,0-4.64-5.94,63.24,63.24,0,0,0-3,6.9c-.83,2.2-1.71,4.82-2.57,7.83s-1.72,6.37-2.46,10-1.42,7.59-1.87,11.74-.81,8.47-.95,12.93a176.51,176.51,0,0,0,1.36,27.73A183.1,183.1,0,0,0,538.48,266a150.62,150.62,0,0,0,8.93,23.19,118.8,118.8,0,0,0,9.31,16c.9,1.29,1.72,2.37,2.42,3.27a705,705,0,0,1-2.09,83.12,126,126,0,0,0-5.88-15A153.67,153.67,0,0,0,538.79,355a181,181,0,0,0-17.52-21.5A175.45,175.45,0,0,0,500.61,315c-3.58-2.71-7.14-5.2-10.67-7.43s-7-4.19-10.28-5.95-6.45-3.18-9.33-4.4-5.48-2.19-7.71-2.92a60.3,60.3,0,0,0-7.23-2,56.86,56.86,0,0,0,1.68,7.33c.62,2.27,1.48,4.9,2.55,7.85s2.43,6.12,4,9.51,3.39,6.94,5.48,10.55,4.38,7.3,6.91,11A175.31,175.31,0,0,0,493.56,360a178.84,178.84,0,0,0,20.69,18.49,149.67,149.67,0,0,0,21,13.36,116.26,116.26,0,0,0,17,7.34c1.55.53,2.92.95,4,1.23a589.47,589.47,0,0,1-13.91,82c-.22-.85-.47-1.8-.77-2.86A120.12,120.12,0,0,0,535,462.19a152,152,0,0,0-12.37-21.54,178.16,178.16,0,0,0-17.54-21.51,174.05,174.05,0,0,0-20.67-18.52c-3.54-2.69-7.12-5.19-10.64-7.41s-7-4.18-10.28-5.95-6.46-3.2-9.34-4.4-5.46-2.2-7.7-2.94a63.57,63.57,0,0,0-7.25-2,59.87,59.87,0,0,0,1.68,7.34c.64,2.24,1.5,4.88,2.57,7.83s2.42,6.14,4,9.52,3.36,7,5.47,10.53,4.37,7.32,6.92,11a176.22,176.22,0,0,0,17.56,21.46,178.14,178.14,0,0,0,20.68,18.51A151.12,151.12,0,0,0,519,477.45a118.77,118.77,0,0,0,17,7.35c2.18.74,4,1.26,5.24,1.59-2.59,10.28-5.48,20.5-8.74,30.62-4,12.42-8.31,25.13-13.28,37.64-.25-1.08-.57-2.38-1-3.87a113.92,113.92,0,0,0-6.58-17.32,146.14,146.14,0,0,0-12.37-21.54,179.54,179.54,0,0,0-38.16-40c-3.57-2.72-7.16-5.2-10.69-7.42s-7-4.18-10.28-5.95-6.45-3.19-9.33-4.4-5.48-2.18-7.68-2.92a61.75,61.75,0,0,0-7.26-2,63.28,63.28,0,0,0,1.67,7.34c.64,2.24,1.5,4.9,2.58,7.82s2.42,6.13,4,9.53,3.38,7,5.49,10.53,4.36,7.32,6.91,11a177.5,177.5,0,0,0,17.56,21.48,180.07,180.07,0,0,0,20.69,18.5,151.93,151.93,0,0,0,20.93,13.34,118.68,118.68,0,0,0,17,7.34c2.22.77,4.06,1.28,5.33,1.61-7.42,18.22-16.27,35.93-27.52,51.49C488.13,612.49,493.4,616.1,495.8,612.77Z"/><path class="cls-flowers-2" d="M437.39,604.25C422.11,623.91,248.75,645,257,581.52c6.92-53.42,125.6-19.47,167.22,5.86-11.31-14.93-22-30.2-32.17-45.31q-14.62-21.71-27.72-44.29c-28.62,12.75-189.61-7.2-167.85-65,17.41-46.24,109.48.62,151.39,35.08q-19.33-36.69-35-75.11C291.06,406.51,121,375.21,147.57,317.34c22.18-48.36,123.16,17,156.71,53.82q-15.75-41.43-27.58-84.26c-26.27,9.21-186.6-43.42-153.13-96.7,27.69-44.07,116,29.62,146.42,71.12q-6-24-10.75-48.35c-24.1-14.31-87.77-170.2-25.57-179.24,58.78-8.55,51.94,142.36,35.09,174.37q5.36,27.47,12.28,54.56c9.18-47.16,66.5-161.3,110.1-127.68,49.1,37.86-76.37,145.29-104.93,147.35q11.64,42.14,27.19,83c4.57-50,45.68-164.67,92.24-137.65,52.91,30.71-53.83,150.75-83.63,159.49A872,872,0,0,0,365.43,478c-3.39-43.1,30.7-177.94,82.2-152.68,56.75,27.84-49.89,162.75-75,165.62q13.43,23.35,28.37,45.89c8.94,13.46,18.37,27,28.33,40.34-10.18-49.67-4.68-169.76,47.45-157.85,59.6,13.63-6.6,159.77-32.5,177.09,18.76,23.23,39.3,45.08,61.95,63.44,5.21,4.22-2.19,11.57-7.36,7.37C476.35,649,456,627.28,437.39,604.25Z"/><path class="cls-flowers-2" d="M383.41,342.1s-.6-1.55-1.48-4.33-2-6.79-3.09-11.64a187.47,187.47,0,0,1,1-85,193.49,193.49,0,0,1,18.49-47.22,190.76,190.76,0,0,1,30.07-40.81,186,186,0,0,1,71.54-46c4.7-1.68,8.72-2.82,11.54-3.54s4.47-1,4.48-1,.6,1.56,1.49,4.35,2,6.79,3.12,11.66a185.09,185.09,0,0,1,4.44,37.9,187.32,187.32,0,0,1-5.4,47.14A191.05,191.05,0,0,1,501,250.73a193.07,193.07,0,0,1-30.2,40.74,187.45,187.45,0,0,1-71.47,46c-4.68,1.69-8.69,2.83-11.51,3.57S383.41,342.1,383.41,342.1Z"/><path class="cls-flowers-3" d="M420,298.89A97.54,97.54,0,1,0,227.9,272.5a84.55,84.55,0,1,0-9.26,168.75A97.54,97.54,0,1,0,412.13,466,84.56,84.56,0,1,0,420,298.89Z"/><path class="cls-flowers-4" d="M414.48,366.91a75.91,75.91,0,1,0-111.09-102.1,65.8,65.8,0,1,0-80.8,103.78A75.92,75.92,0,1,0,335.3,470.31a65.82,65.82,0,1,0,79.18-103.4Z"/><path class="cls-flowers-5" d="M269.79,319.66q20.37,20.61,40.75,41.23c1.68,1.71,4.58-.67,2.88-2.39l-40.75-41.24c-1.69-1.7-4.58.68-2.88,2.4Z"/><path class="cls-flowers-5" d="M284.47,295.79q15.21,30.42,30.41,60.84c1.08,2.16,4.5.62,3.42-1.54q-15.21-30.42-30.41-60.84c-1.08-2.16-4.5-.62-3.42,1.54Z"/><path class="cls-flowers-5" d="M314.83,298.41q3.48,27.07,7,54.16c.3,2.4,4,1.77,3.69-.62l-7-54.15c-.31-2.41-4-1.78-3.69.61Z"/><path class="cls-flowers-5" d="M349.65,283.24q-9.86,35.89-19.73,71.78c-.63,2.31,2.88,3.62,3.53,1.28q9.85-35.9,19.73-71.78c.63-2.31-2.89-3.62-3.53-1.28Z"/><path class="cls-flowers-5" d="M375.63,310.31l-41.26,49.36c-1.55,1.86,1.53,4,3.07,2.14l41.26-49.35c1.55-1.86-1.53-4-3.07-2.15Z"/><path class="cls-flowers-5" d="M404.78,335.47l-67,32.95c-2.17,1.07-.63,4.48,1.54,3.41l67-32.95c2.17-1.07.63-4.48-1.54-3.41Z"/><path class="cls-flowers-5" d="M400.15,371.08l-59.8,6.78c-2.41.28-1.77,4,.62,3.7l59.79-6.78c2.41-.28,1.78-4-.61-3.7Z"/><path class="cls-flowers-5" d="M404.18,406.3l-60-23.31c-2.26-.87-3.54,2.65-1.28,3.53l60,23.3c2.26.88,3.54-2.64,1.28-3.52Z"/><path class="cls-flowers-5" d="M380.91,430.35l-38-41.14c-1.63-1.77-4.52.61-2.88,2.39l38,41.14c1.64,1.77,4.53-.62,2.89-2.39Z"/><path class="cls-flowers-5" d="M362.93,461.59q-14.65-35.41-29.3-70.84c-.93-2.24-4.34-.69-3.42,1.54q14.66,35.41,29.3,70.85c.93,2.23,4.34.68,3.42-1.55Z"/><path class="cls-flowers-5" d="M327.76,456.5q1.23-33.19,2.45-66.38c.09-2.41-3.65-2.76-3.74-.35Q325.26,423,324,456.16c-.09,2.4,3.64,2.76,3.73.34Z"/><path class="cls-flowers-5" d="M292.06,465.08q14.12-35.61,28.25-71.23c.89-2.25-2.63-3.53-3.53-1.28q-14.11,35.61-28.25,71.23c-.89,2.25,2.64,3.53,3.53,1.28Z"/><path class="cls-flowers-5" d="M270.34,428.55l40.11-39.83c1.7-1.68-.68-4.58-2.39-2.88l-40.12,39.83c-1.7,1.68.68,4.58,2.4,2.88Z"/><path class="cls-flowers-5" d="M225.09,406.28q39.66-11.61,79.28-23.39c2.29-.68,1.7-4.38-.61-3.7-26.43,7.8-52.84,15.66-79.29,23.39-2.29.67-1.7,4.37.62,3.7Z"/><path class="cls-flowers-5" d="M251.38,368.71l50.4,3.46c2.41.16,2.76-3.57.34-3.74L251.72,365c-2.41-.16-2.76,3.57-.34,3.74Z"/><path class="cls-flowers-5" d="M237.5,336.69,304.71,364c2.24.91,3.52-2.61,1.28-3.53l-67.21-27.34c-2.24-.91-3.52,2.61-1.28,3.52Z"/><circle class="cls-flowers-6" cx="325.2" cy="374.04" r="41.97" transform="translate(-147.7 225.61) rotate(-31.57)"/><path class="cls-flowers-7" d="M621,281.36c-28.85,7.42-54.4,5.05-57.06-5.29s18.58-24.73,47.43-32.15,54.41-5.06,57.07,5.28S649.85,273.94,621,281.36Z"/><path class="cls-flowers-7" d="M496.16,313.46c-28.85,7.42-54.4,5.05-57.06-5.29s18.58-24.73,47.43-32.15,54.41-5.06,57.07,5.28S525,306,496.16,313.46Z"/><path class="cls-flowers-7" d="M556.44,211.46c7.41,28.85,5,54.4-5.29,57.06S526.41,249.94,519,221.09s-5-54.41,5.29-57.07S549,182.6,556.44,211.46Z"/><path class="cls-flowers-7" d="M588.54,336.29c7.42,28.85,5.05,54.4-5.29,57.06s-24.74-18.58-32.16-47.43-5.05-54.41,5.29-57.07S581.11,307.43,588.54,336.29Z"/><path class="cls-flowers-7" d="M599.41,328.11c-25.65-15.15-42-34.89-36.61-44.08s30.63-4.36,56.28,10.8,42,34.9,36.61,44.09S625.06,343.27,599.41,328.11Z"/><path class="cls-flowers-7" d="M488.44,262.54c-25.64-15.15-42-34.9-36.61-44.08s30.63-4.36,56.28,10.8,42,34.89,36.62,44.08S514.1,277.7,488.44,262.54Z"/><path class="cls-flowers-7" d="M603.19,233c-15.16,25.65-34.9,42-44.09,36.61s-4.35-30.63,10.81-56.28S604.8,171.32,614,176.76,618.35,207.39,603.19,233Z"/><path class="cls-flowers-7" d="M537.62,344c-15.16,25.64-34.9,42-44.09,36.61s-4.35-30.63,10.81-56.28,34.89-42,44.08-36.62S552.78,318.35,537.62,344Z"/><path class="cls-flowers-8" d="M615.68,252.37c-22.91,19-47,27.82-53.84,19.61s6.23-30.3,29.14-49.34,47-27.82,53.85-19.61S638.6,233.33,615.68,252.37Z"/><path class="cls-flowers-8" d="M516.54,334.74c-22.91,19-47,27.82-53.85,19.6S468.92,324,491.84,305s47-27.82,53.85-19.61S539.46,315.7,516.54,334.74Z"/><path class="cls-flowers-8" d="M527.45,216.76c19,22.92,27.82,47,19.6,53.85s-30.3-6.23-49.34-29.14-27.81-47-19.6-53.85S508.41,193.84,527.45,216.76Z"/><path class="cls-flowers-8" d="M609.81,315.91c19,22.91,27.82,47,19.61,53.84s-30.3-6.22-49.34-29.14-27.82-47-19.61-53.85S590.78,293,609.81,315.91Z"/><path class="cls-flowers-8" d="M616.16,303.87c-29.67-2.75-52.93-13.59-51.94-24.22s25.83-17,55.49-14.28,52.93,13.58,51.95,24.21S645.82,306.61,616.16,303.87Z"/><path class="cls-flowers-8" d="M487.81,292c-29.67-2.74-52.92-13.58-51.94-24.21s25.83-17,55.5-14.29,52.92,13.59,51.94,24.22S517.48,294.74,487.81,292Z"/><path class="cls-flowers-8" d="M578.94,216.29c-2.74,29.67-13.58,52.93-24.21,51.94s-17-25.83-14.28-55.5,13.58-52.92,24.21-51.94S581.68,186.62,578.94,216.29Z"/><path class="cls-flowers-8" d="M567.08,344.64c-2.74,29.66-13.58,52.92-24.21,51.94s-17-25.83-14.28-55.5,13.58-52.92,24.21-51.94S569.82,315,567.08,344.64Z"/><path class="cls-flowers-6" d="M571.77,263.73a23.41,23.41,0,1,1-33-3.05A23.42,23.42,0,0,1,571.77,263.73Z"/></svg>