<svg id="Capa_1" data-name="Capa 1" xmlns="http://www.w3.org/2000/svg" viewBox="0 0 2349 2344"><defs><style>.cls-1{fill:#e2e2e2;opacity:0.6;}</style></defs><title>PAI CERCS</title><path class="cls-1" d="M1922.28,2164.08c302-136.67,435.58-498.6,295.24-798.85-97.7-209-301.72-335.84-518.61-344.51-75.9-3-146.17-40.58-189.83-102.75a795.58,795.58,0,0,0-350-278.93c-107.68-44.1-186-139.38-210.28-253.19A391.57,391.57,0,0,0,915,290.25C826.66,116.08,618.59,33.75,435.16,100.7,221,178.88,121.06,420.19,212.13,625c.28.61.55,1.23.83,1.85,45.21,100.27,39.95,216.81-20.89,308.45-145.93,219.84-179.81,507.29-64.64,766.26,179.09,402.7,650.72,584,1053.43,404.89l2.38-1.06c53.26-23.91,114.42-18.58,163.22,13.46C1512.06,2227.59,1728.09,2252,1922.28,2164.08Z"/></svg>