<svg id="Capa_1" data-name="Capa 1" xmlns="http://www.w3.org/2000/svg" viewBox="0 0 377.69 200.05"><defs><style>.cls-leaf-1{fill:#a1c6ae;opacity:0.8;isolation:isolate;}</style></defs><title>PAI CERCS</title><path class="cls-leaf-1" d="M375.07,87.73c-20.92,10.54-45,16.55-68.55,20.52-.26,1-.66,2.49-1.26,4.27a97.36,97.36,0,0,1-6,14.07,123.92,123.92,0,0,1-10.93,17.34,148.91,148.91,0,0,1-15.18,17.15,146.72,146.72,0,0,1-17.66,14.58c-3.08,2.12-6.07,4-9.06,5.77s-5.91,3.2-8.68,4.54-5.4,2.41-7.85,3.35-4.58,1.6-6.43,2.13a52.45,52.45,0,0,1-6.07,1.43,51.52,51.52,0,0,1,1.65-6c.59-1.84,1.39-4,2.38-6.39s2.21-5,3.6-7.71a94.69,94.69,0,0,1,4.87-8.51c1.86-2.89,3.86-5.89,6.08-8.84a144.21,144.21,0,0,1,32.9-31.59,123.91,123.91,0,0,1,17.72-10.33c2.73-1.29,5.33-2.37,7.72-3.27l-5.39.76a473.56,473.56,0,0,1-52,4.1q-.33,1.15-.84,2.67a95.8,95.8,0,0,1-6,14.07,125.37,125.37,0,0,1-10.94,17.35A146.34,146.34,0,0,1,204,166.35a143.17,143.17,0,0,1-17.65,14.57c-3.08,2.12-6.06,4.05-9.05,5.77s-5.92,3.21-8.68,4.56-5.42,2.41-7.84,3.33-4.6,1.61-6.45,2.15a52.09,52.09,0,0,1-6.05,1.42,51.4,51.4,0,0,1,1.62-6c.62-1.85,1.41-4,2.38-6.37s2.21-5,3.62-7.74,3-5.59,4.86-8.51,3.88-5.88,6.08-8.82A144.88,144.88,0,0,1,182,143.58,147.67,147.67,0,0,1,199.7,129a125.3,125.3,0,0,1,17.75-10.26c2.91-1.39,5.67-2.52,8.2-3.48q-25.43.09-50.77-2.29c-.48.71-1,1.51-1.67,2.41a102.21,102.21,0,0,1-10,11.57,122.9,122.9,0,0,1-15.68,13.21,145.26,145.26,0,0,1-19.66,11.75,141.32,141.32,0,0,1-21.24,8.55c-3.52,1.11-7,2.05-10.36,2.76s-6.62,1.28-9.65,1.72-5.91.66-8.49.8-4.89.17-6.79.09a50.62,50.62,0,0,1-6.16-.47,51.09,51.09,0,0,1,3.36-5.23c1.14-1.56,2.54-3.35,4.22-5.34s3.58-4.11,5.75-6.27,4.6-4.44,7.18-6.64,5.46-4.44,8.47-6.59A147.74,147.74,0,0,1,135.06,115a125.7,125.7,0,0,1,19.63-4.4q-21.18-2.74-42.19-7A102.21,102.21,0,0,1,99.44,105a125.67,125.67,0,0,1-20.52-.94,144,144,0,0,1-22.41-4.7,142.36,142.36,0,0,1-21.43-8.11c-3.32-1.58-6.49-3.27-9.47-5S19.9,82.8,17.38,81s-4.79-3.52-6.77-5.13-3.69-3.18-5.06-4.54a45.59,45.59,0,0,1-4.23-4.56,51.91,51.91,0,0,1,6-1.54c1.9-.39,4.11-.77,6.72-1.08s5.42-.57,8.49-.69,6.37-.17,9.81,0,7,.45,10.67.92a145.42,145.42,0,0,1,22.43,4.72,150.35,150.35,0,0,1,21.38,8.21,124.64,124.64,0,0,1,17.74,10.26,99.28,99.28,0,0,1,11.86,9.69c.93.9,1.7,1.71,2.34,2.4a581.31,581.31,0,0,0,68,9.14,104.07,104.07,0,0,1-11.49-6.75,125.9,125.9,0,0,1-15.95-12.91,151.44,151.44,0,0,1-15.23-17.08,144.05,144.05,0,0,1-12.37-19.3c-1.75-3.28-3.32-6.5-4.67-9.66s-2.52-6.25-3.54-9.16a82.89,82.89,0,0,1-2.38-8.21c-.63-2.53-1-4.75-1.37-6.66a48.86,48.86,0,0,1-.71-6.15,45.59,45.59,0,0,1,5.76,2.32c1.77.8,3.8,1.84,6.06,3.07s4.68,2.77,7.23,4.49,5.22,3.66,7.89,5.84,5.38,4.52,8.05,7.07a143.75,143.75,0,0,1,15.24,17.18,146.7,146.7,0,0,1,12.36,19.27A123.1,123.1,0,0,1,189.84,91a95.8,95.8,0,0,1,3.77,14.82c.22,1.33.39,2.5.48,3.45a486.42,486.42,0,0,0,68.61-.65c-.67-.29-1.41-.62-2.23-1A99.67,99.67,0,0,1,247.21,100,126,126,0,0,1,231.3,87.11,147.37,147.37,0,0,1,216.05,70a143.61,143.61,0,0,1-12.46-19.26c-1.73-3.23-3.3-6.48-4.66-9.64s-2.48-6.25-3.5-9.16-1.77-5.68-2.38-8.21S192,19,191.68,17.07a50.7,50.7,0,0,1-.7-6.16,51.38,51.38,0,0,1,5.76,2.33c1.75.8,3.78,1.86,6,3.08A82.57,82.57,0,0,1,210,20.83c2.54,1.73,5.23,3.64,7.87,5.82s5.39,4.52,8.06,7.08a145.12,145.12,0,0,1,15.25,17.15A148.74,148.74,0,0,1,253.6,70.16,125.7,125.7,0,0,1,261.74,89a99.15,99.15,0,0,1,3.77,14.83c.32,1.87.5,3.41.61,4.47q13.08-1.16,26.1-3.08c10.65-1.62,21.55-3.5,32.42-5.92-.85-.34-1.87-.77-3-1.33a94.21,94.21,0,0,1-13.25-7.63,121.1,121.1,0,0,1-15.94-12.89,141.65,141.65,0,0,1-15.25-17.13,143.94,143.94,0,0,1-12.41-19.23c-1.75-3.26-3.3-6.51-4.66-9.67s-2.49-6.26-3.51-9.16A84.66,84.66,0,0,1,254.22,14c-.6-2.53-1-4.75-1.37-6.64a50.79,50.79,0,0,1-.71-6.15,48.75,48.75,0,0,1,5.78,2.32c1.73.81,3.78,1.85,6,3.08s4.68,2.77,7.26,4.48A91.64,91.64,0,0,1,279.07,17c2.62,2.18,5.4,4.5,8.06,7.06a146.74,146.74,0,0,1,27.6,36.44,126.31,126.31,0,0,1,8.15,18.81,98.19,98.19,0,0,1,3.75,14.83c.34,1.92.51,3.48.62,4.55,15.82-3.66,31.41-8.56,45.56-15.71C375.85,81.43,378.1,86.2,375.07,87.73Z"/></svg>