<svg id="Capa_1" data-name="Capa 1" xmlns="http://www.w3.org/2000/svg" viewBox="0 0 457.36 244.76"><defs><style>.cls-leaf-1{fill:#a1c6ae;opacity:0.8;}</style></defs><title>PAI CERCS</title><path class="cls-leaf-1" d="M402.1,111.8c-20.38,10.28-43.89,16.13-66.8,20-.25,1-.64,2.43-1.23,4.16a94,94,0,0,1-5.84,13.71,121.34,121.34,0,0,1-10.65,16.9,144.83,144.83,0,0,1-14.8,16.71,142.48,142.48,0,0,1-17.21,14.21c-3,2.07-5.91,3.93-8.82,5.62s-5.76,3.12-8.46,4.43-5.27,2.35-7.65,3.26-4.47,1.56-6.27,2.08a51.4,51.4,0,0,1-5.91,1.39,50.53,50.53,0,0,1,1.6-5.84c.58-1.79,1.36-3.89,2.32-6.22s2.16-4.84,3.51-7.52,2.94-5.47,4.75-8.29,3.76-5.74,5.92-8.61a141.29,141.29,0,0,1,14.82-16.69A143.29,143.29,0,0,1,298.62,147a119.78,119.78,0,0,1,17.27-10.06c2.66-1.26,5.19-2.31,7.52-3.19l-5.25.74a463.25,463.25,0,0,1-50.66,4c-.22.75-.49,1.61-.82,2.6a93.32,93.32,0,0,1-5.85,13.71,121.76,121.76,0,0,1-10.66,16.91,143.57,143.57,0,0,1-14.79,16.71,139.7,139.7,0,0,1-17.2,14.2c-3,2.06-5.91,3.94-8.82,5.62s-5.77,3.13-8.46,4.44-5.28,2.35-7.64,3.25-4.48,1.57-6.28,2.09a51.57,51.57,0,0,1-5.9,1.39,49.26,49.26,0,0,1,1.58-5.84c.6-1.8,1.37-3.91,2.32-6.21s2.15-4.85,3.53-7.54,2.93-5.45,4.73-8.29,3.78-5.73,5.93-8.6A141.21,141.21,0,0,1,214,166.23,144.1,144.1,0,0,1,231.21,152a121.84,121.84,0,0,1,17.29-10c2.84-1.35,5.53-2.45,8-3.39q-24.78.09-49.48-2.23c-.47.69-1,1.47-1.63,2.35A99.25,99.25,0,0,1,195.62,150a119.72,119.72,0,0,1-15.28,12.88,142.26,142.26,0,0,1-19.16,11.45,138.21,138.21,0,0,1-20.7,8.33c-3.43,1.08-6.81,2-10.09,2.69s-6.45,1.25-9.41,1.67-5.75.65-8.27.78-4.76.17-6.62.09a47.14,47.14,0,0,1-6-.46,49.48,49.48,0,0,1,3.28-5.09c1.11-1.52,2.47-3.27,4.11-5.21s3.49-4,5.6-6.11,4.48-4.32,7-6.47,5.32-4.32,8.25-6.42a144,144,0,0,1,39.89-19.71,121.49,121.49,0,0,1,19.13-4.29q-20.65-2.68-41.12-6.82a98.86,98.86,0,0,1-12.72,1.36,122.52,122.52,0,0,1-20-.91,141,141,0,0,1-21.84-4.58,138.85,138.85,0,0,1-20.88-7.91c-3.24-1.54-6.33-3.18-9.23-4.86S56,107,53.54,105.27s-4.67-3.43-6.6-5-3.59-3.1-4.93-4.43a44.27,44.27,0,0,1-4.12-4.44,49.62,49.62,0,0,1,5.86-1.5c1.85-.38,4-.75,6.55-1.05s5.28-.56,8.27-.68,6.21-.16,9.56,0,6.84.44,10.4.9a141.91,141.91,0,0,1,21.85,4.6,146.63,146.63,0,0,1,20.84,8,121.37,121.37,0,0,1,17.29,10,97,97,0,0,1,11.55,9.44c.91.88,1.66,1.67,2.28,2.34a567.81,567.81,0,0,0,66.3,8.91,103,103,0,0,1-11.2-6.58,123.5,123.5,0,0,1-15.54-12.58,145.66,145.66,0,0,1-14.84-16.65A140.22,140.22,0,0,1,165,77.75c-1.7-3.2-3.23-6.34-4.55-9.42S158,62.24,157,59.41s-1.71-5.53-2.32-8-1-4.63-1.33-6.49a46.75,46.75,0,0,1-.69-6,46.06,46.06,0,0,1,5.61,2.26c1.72.78,3.7,1.8,5.9,3s4.56,2.7,7.05,4.37,5.09,3.57,7.69,5.69,5.24,4.41,7.84,6.89A139.93,139.93,0,0,1,201.6,77.87a143.49,143.49,0,0,1,12.05,18.78A119.77,119.77,0,0,1,221.6,115a93.86,93.86,0,0,1,3.67,14.44c.22,1.3.38,2.44.47,3.36a473.6,473.6,0,0,0,66.86-.63c-.65-.28-1.37-.6-2.17-1a96.51,96.51,0,0,1-12.92-7.44A121.61,121.61,0,0,1,262,111.2a143.42,143.42,0,0,1-14.86-16.67A140,140,0,0,1,235,75.76c-1.69-3.15-3.22-6.32-4.54-9.4s-2.42-6.09-3.41-8.92-1.73-5.54-2.32-8-1.05-4.62-1.34-6.49a49.69,49.69,0,0,1-.68-6,47.44,47.44,0,0,1,5.61,2.27c1.71.78,3.69,1.81,5.9,3s4.57,2.7,7.05,4.39,5.1,3.55,7.67,5.67,5.26,4.41,7.86,6.9A142.43,142.43,0,0,1,271.66,75.9a144,144,0,0,1,12.07,18.78A121.77,121.77,0,0,1,291.66,113a96.55,96.55,0,0,1,3.68,14.45c.31,1.83.49,3.33.59,4.36q12.75-1.12,25.44-3c10.37-1.58,21-3.41,31.59-5.77-.83-.33-1.82-.75-2.95-1.3a92.39,92.39,0,0,1-12.92-7.43,118.08,118.08,0,0,1-15.53-12.56A139.06,139.06,0,0,1,306.7,85.06a140.12,140.12,0,0,1-12.09-18.74c-1.71-3.18-3.22-6.35-4.54-9.43s-2.43-6.1-3.42-8.92-1.72-5.53-2.31-8-1-4.63-1.34-6.47a49.41,49.41,0,0,1-.69-6,48.34,48.34,0,0,1,5.63,2.26c1.69.79,3.69,1.81,5.88,3s4.56,2.7,7.07,4.37,5.1,3.57,7.66,5.7,5.26,4.39,7.86,6.88A143.11,143.11,0,0,1,343.3,85.22a122.38,122.38,0,0,1,7.94,18.33A95.9,95.9,0,0,1,354.9,118c.33,1.87.5,3.39.6,4.44,15.42-3.57,30.61-8.35,44.4-15.31C402.86,105.67,405.05,110.31,402.1,111.8Z"/></svg>