<svg id="Capa_1" data-name="Capa 1" xmlns="http://www.w3.org/2000/svg" viewBox="0 0 377.69 200.05"><defs><style>.cls-helix-1{fill:#95969d;}</style></defs><title>PAI CERCS</title><path class="cls-helix-1" d="M277.37,53c-20.09,3.85-36.51,14.11-48.69,24.37a79.5,79.5,0,0,0-99-1.77c-19.94-16.5-49.45-21.81-73.21-10.7C24.85,79.66,9,120.8,22.59,152.91a4.32,4.32,0,1,0,8-3.35c-11.83-28,2-63.95,29.51-76.85,20.33-9.51,45.5-5.25,62.87,8.52A78.08,78.08,0,0,0,109.06,98.5c-6.2,10.51-8.14,23.7-4.94,33.58a21.88,21.88,0,0,0,12.12,13.84,22.27,22.27,0,0,0,17.26,0A28.38,28.38,0,0,0,148.9,131c4.31-10.26,3.12-23.19-3.29-35.61a62.11,62.11,0,0,0-9.67-13.73A72,72,0,0,1,171.56,68.1,72.87,72.87,0,0,1,222.2,83.31c-1.65,1.59-3.19,3.16-4.63,4.69-6.12,6.48-14.49,16.54-16.6,28.92-1.92,11.18,2.56,25.84,14.79,31a23.2,23.2,0,0,0,19.85-1.2,30.51,30.51,0,0,0,15.63-19.81c2.86-12.7-1.77-27.26-12.71-39.95-1.09-1.29-2.23-2.57-3.41-3.71,11.18-9.34,26-18.37,43.88-21.81,22.12-4.26,44.76,1.77,59.13,15.73,15.39,15,19.94,39.5,10.44,56.93a4.32,4.32,0,0,0,7.58,4.13c11.28-20.7,6.13-49.62-12-67.25-13.22-12.83-32.47-19.82-52.47-19.5A82.89,82.89,0,0,0,277.37,53ZM119.71,138.08a13.34,13.34,0,0,1-7.38-8.6c-2.39-7.4-.68-18.32,4.17-26.53a69.77,69.77,0,0,1,12.83-15.81A53.61,53.61,0,0,1,138,99.34c5.22,10.14,6.33,20.46,3,28.31a19.74,19.74,0,0,1-10.65,10.26,15.56,15.56,0,0,1-5.47,1.15A12.35,12.35,0,0,1,119.71,138.08ZM219.08,140c-7.8-3.32-11-13.6-9.66-21.62,1.72-10.08,9-18.79,14.37-24.45Q226,91.55,228.63,89c1.15,1.16,2.26,2.35,3.31,3.58,4.32,5,14,18.22,10.83,32.42a22,22,0,0,1-11.15,14,16.7,16.7,0,0,1-7.28,1.93,13,13,0,0,1-5.26-1Z"/></svg>