<svg id="Capa_1" data-name="Capa 1" xmlns="http://www.w3.org/2000/svg" viewBox="0 0 422 352"><defs><style>.cls-helix-1{fill:#95969d;}</style></defs><title>PAI CERCS</title><path class="cls-helix-1" d="M270,151.59c-15.66,3-28.46,11-37.95,19a61.95,61.95,0,0,0-77.19-1.38c-15.54-12.86-38.54-17-57.06-8.34-24.61,11.51-36.93,43.57-26.37,68.6a3.36,3.36,0,0,0,6.2-2.61c-9.22-21.86,1.54-49.84,23-59.9,15.85-7.41,35.46-4.09,49,6.64a61.06,61.06,0,0,0-10.81,13.46c-4.83,8.19-6.34,18.47-3.85,26.17a17.06,17.06,0,0,0,9.45,10.79,17.33,17.33,0,0,0,13.45,0,22.13,22.13,0,0,0,12-11.64c3.36-8,2.43-18.08-2.56-27.76a48.5,48.5,0,0,0-7.54-10.7,56.15,56.15,0,0,1,27.76-10.55A56.8,56.8,0,0,1,227,175.22c-1.29,1.24-2.49,2.47-3.61,3.66-4.77,5.05-11.29,12.89-12.94,22.54-1.49,8.71,2,20.14,11.53,24.18a18.07,18.07,0,0,0,15.47-.93,23.76,23.76,0,0,0,12.18-15.44c2.23-9.9-1.38-21.25-9.9-31.14-.85-1-1.74-2-2.66-2.89,8.71-7.28,20.26-14.32,34.2-17,17.24-3.32,34.88,1.38,46.08,12.26,12,11.72,15.54,30.79,8.14,44.37a3.37,3.37,0,0,0,5.91,3.22c8.79-16.13,4.77-38.67-9.36-52.41-10.3-10-25.3-15.45-40.89-15.2A65,65,0,0,0,270,151.59ZM147.12,217.91a10.39,10.39,0,0,1-5.75-6.7c-1.86-5.77-.53-14.28,3.25-20.68a54.38,54.38,0,0,1,10-12.32,41.83,41.83,0,0,1,6.75,9.51c4.07,7.9,4.93,15.94,2.34,22.06a15.43,15.43,0,0,1-8.3,8,12.05,12.05,0,0,1-4.27.89A9.53,9.53,0,0,1,147.12,217.91Zm77.45,1.5c-6.08-2.59-8.6-10.6-7.53-16.85,1.34-7.86,7-14.65,11.2-19.06q1.74-1.86,3.77-3.81,1.35,1.35,2.58,2.79c3.37,3.91,10.93,14.2,8.44,25.27a17.14,17.14,0,0,1-8.69,10.94,12.91,12.91,0,0,1-5.67,1.5A10.18,10.18,0,0,1,224.57,219.41Z"/></svg>