<svg id="Capa_1" data-name="Capa 1" xmlns="http://www.w3.org/2000/svg" viewBox="0 0 3663.99 998"><defs><style>.cls-footer-clouds-1{fill:#d6d6d8;}.cls-footer-clouds-2{opacity:0.7;}.cls-footer-clouds-3{fill:#95969d;}.cls-footer-clouds-4{opacity:0.8;}</style></defs><title>PAI CERCS</title><path class="cls-footer-clouds-1" d="M1985,650h-10.06a154.8,154.8,0,0,0-187.58-151.49c-23.79-72.39-91.81-124.72-172.16-124.76-89.22,0-163.26,64.4-178.45,149.25a142.18,142.18,0,0,0-18.8-1.4c-76.83,0-139.24,61.19-141.4,137.51-89.07,24.64-159.28,95.92-182.19,185.68l1113.2,1.1C2179.11,734.05,2105.37,650.06,1985,650Z"/><g class="cls-footer-clouds-2"><path class="cls-footer-clouds-1" d="M2426.7,655.58h-10.06a154.8,154.8,0,0,0-187.58-151.49c-23.79-72.39-91.81-124.72-172.16-124.76-89.22,0-163.26,64.4-178.45,149.25a143.9,143.9,0,0,0-18.8-1.4c-76.83,0-139.24,61.19-141.4,137.51-89.07,24.64-159.28,95.92-182.19,185.69l1113.2,1.1C2620.82,739.62,2547.08,655.63,2426.7,655.58Z"/></g><path class="cls-footer-clouds-3" d="M1334,606.18l-13.23.09c-.73-112.53-92.54-203.16-205.07-202.43a204.9,204.9,0,0,0-43,4.92c-32-95-121.87-163.18-227.54-162.5-117.33.77-214.11,86.18-233.32,197.9a188.42,188.42,0,0,0-24.72-1.67c-101,.66-182.57,81.74-184.71,182.12C285.53,657.83,193.84,752.2,164.54,870.46l1451.62-8.69C1577.75,715,1492.31,605.16,1334,606.18Z"/><g class="cls-footer-clouds-4"><path class="cls-footer-clouds-3" d="M3205.2,591.78l-13.22.09c-.73-112.53-92.55-203.16-205.07-202.43a204.92,204.92,0,0,0-43,4.92c-31.94-95-121.87-163.18-227.54-162.5-117.33.76-214.1,86.18-233.31,197.9a188.57,188.57,0,0,0-24.73-1.67c-101,.66-182.56,81.74-184.7,182.12-116.9,33.22-208.59,127.59-237.9,245.85l1451.63-8.69C3448.94,700.55,3363.51,590.76,3205.2,591.78Z"/><path class="cls-footer-clouds-3" d="M3207,592.32h-13.23c.05-112.53-91.14-203.79-203.67-203.84a204.12,204.12,0,0,0-43,4.62c-31.28-95.2-120.73-164-226.4-164.07C2603.32,229,2506,313.71,2486,425.29a188.07,188.07,0,0,0-24.71-1.84c-101,0-183.13,80.48-186,180.84-117.12,32.41-209.46,126.14-239.59,244.19l1464,1.45C3462.26,702.85,3365.28,592.39,3207,592.32Z"/></g></svg>