<svg id="Capa_1" data-name="Capa 1" xmlns="http://www.w3.org/2000/svg" xmlns:xlink="http://www.w3.org/1999/xlink" viewBox="0 0 3316.82 786.16"><defs><style>.cls-grey-footer-1{fill:none;}.cls-grey-footer-2{clip-path:url(#clip-path);}.cls-grey-footer-3{fill:#78a88b;isolation:isolate;}.cls-grey-footer-3,.cls-grey-footer-8{opacity:0.8;}.cls-grey-footer-4{clip-path:url(#clip-path-2);}.cls-grey-footer-5{fill:#d6d6d8;}.cls-grey-footer-6{opacity:0.7;}.cls-grey-footer-7,.cls-grey-footer-9{fill:#95969d;}.cls-grey-footer-11,.cls-grey-footer-7{opacity:0.9;}.cls-grey-footer-10{opacity:0.6;}</style><clipPath id="clip-path"><rect class="cls-grey-footer-1" y="-2200.67" width="3316.58" height="1159.25"/></clipPath><clipPath id="clip-path-2"><rect class="cls-grey-footer-1" width="3316.82" height="784.55"/></clipPath></defs><title>PAI CERCS</title><g class="cls-grey-footer-2"><path class="cls-grey-footer-3" d="M1296-1038.15c-100.26-76.09-220.43-121.18-343.55-143.39-66.29-12-133.62-17.93-200.94-19.42-71.53-1.6-142.87,3.7-214.38,3.93-120.72.38-261.55-22.93-329.84-135.16-32.15-52.81-44.5-114.59-59.08-173.87-13.34-54.11-29.77-107.93-61.39-154.54-29-42.9-71-79.06-123.61-87.48-57.74-9.26-115.3,14.52-157.66,53.16-46.09,42-72.17,101.77-87.93,161-14.78,55.53-22.87,113.24-26.52,170.53-7.05,110.54,4.86,222.23,33.19,329.19A1078.42,1078.42,0,0,0-142.67-730.69C-83.36-637.89-9.56-554.06,76.55-485.28,178-404.26,299.79-350.18,394-260l.44.41a281.16,281.16,0,0,1,67.6,102.8C489.76-84.27,518.61,38,435.45,106.8,312,209-58.48,194.38-159.72,541.06c-12.27,42-22.41,82.15-30.92,120.42H1419.59v-1576A626.19,626.19,0,0,0,1296-1038.15Z"/></g><g class="cls-grey-footer-4"><path class="cls-grey-footer-5" d="M1830.64,608.9h-9A139.12,139.12,0,0,0,1653,472.77a162.86,162.86,0,0,0-315.06,22,129.06,129.06,0,0,0-16.89-1.26A127.14,127.14,0,0,0,1194,617.09c-80,22.14-143.13,86.19-163.71,166.85l1000.32,1C2005.07,684.43,1938.8,609,1830.64,608.9Z"/><g class="cls-grey-footer-6"><path class="cls-grey-footer-5" d="M2227.55,613.92h-9A139.08,139.08,0,0,0,2050,477.79a162.86,162.86,0,0,0-315.06,22,130.81,130.81,0,0,0-16.89-1.25A127.12,127.12,0,0,0,1590.94,622.1c-80,22.14-143.13,86.2-163.72,166.86l1000.32,1C2402,689.44,2335.72,614,2227.55,613.92Z"/></g><path class="cls-grey-footer-7" d="M1245.65,550l-11.89.08c-.66-101.12-83.16-182.56-184.28-181.9a184.69,184.69,0,0,0-38.64,4.42c-28.75-85.37-109.51-146.63-204.46-146-105.44.69-192.4,77.44-209.67,177.83a168.31,168.31,0,0,0-22.21-1.5c-90.76.59-164.06,73.45-166,163.65-105,29.86-187.42,114.66-213.75,220.93l1304.43-1.81C1464.68,653.82,1387.91,549.12,1245.65,550Z"/><g class="cls-grey-footer-8"><path class="cls-grey-footer-9" d="M2927.11,552.57l-11.88.08a182.92,182.92,0,0,0-222.91-177.48c-28.71-85.37-109.52-146.63-204.47-146-105.44.68-192.39,77.44-209.65,177.83a168.61,168.61,0,0,0-22.23-1.5c-90.76.59-164,73.45-166,163.65C1985,599,1902.56,683.79,1876.22,790.05l1304.44-7.8C3146.14,650.31,3069.37,551.66,2927.11,552.57Z"/><path class="cls-grey-footer-9" d="M2928.73,553.06h-11.89c0-101.12-81.9-183.13-183-183.17a183.23,183.23,0,0,0-38.64,4.15c-28.11-85.55-108.49-147.37-203.44-147.44-105.48,0-192.93,76.1-210.9,176.36a170.19,170.19,0,0,0-22.21-1.65c-90.76,0-164.56,72.32-167.14,162.5-105.24,29.13-188.22,113.35-215.29,219.43l1315.55,1.31C3158.11,652.38,3071,553.12,2928.73,553.06Z"/></g><g class="cls-grey-footer-10"><path class="cls-grey-footer-9" d="M468.28,454.75l-17,.12c-.95-145.12-119.35-262-264.46-261a264.62,264.62,0,0,0-55.45,6.34A308.7,308.7,0,0,0,0,35.58V789.33l832.15-5C782.6,595,672.44,453.44,468.28,454.75Z"/></g><rect class="cls-grey-footer-1" y="-27.54" width="3323.92" height="812.47"/><g class="cls-grey-footer-11"><path class="cls-grey-footer-9" d="M3117.2,263.36a231.84,231.84,0,0,0-30.59-2.06c-124.9.81-225.77,101.08-228.41,225.22-144.57,41.08-258,157.79-294.21,304L3323.92,786V30.7A295.34,295.34,0,0,0,3117.2,263.36Z"/></g><rect class="cls-grey-footer-1" width="3316.82" height="786.16"/></g></svg>