<svg id="Capa_1" data-name="Capa 1" xmlns="http://www.w3.org/2000/svg" viewBox="0 0 575.08 653.58"><defs><style>.cls-rain-1,.cls-rain-2{fill:#e2e2e2;}.cls-rain-2{opacity:0.5;}.cls-rain-3{fill:#95969d;}.cls-rain-4{fill:#d6d6d8;}.cls-rain-5{fill:#767575;}</style></defs><title>PAI CERCS</title><path class="cls-rain-1" d="M433.85,491.88a120,120,0,0,0,35.22-11.95c56.34-29.46,79.8-99,52.87-156.6a119.7,119.7,0,0,0-187.81-38.81,105.37,105.37,0,0,1-93.94,24A172.78,172.78,0,0,0,122.47,322.6c-83.24,42-118.35,143.8-78.78,228.26a173.41,173.41,0,0,0,313.93.38C372.13,520.38,400.24,497.66,433.85,491.88Z"/><path class="cls-rain-2" d="M151.17,97.63a90.61,90.61,0,0,0-27.62,5C78.23,118.4,53,167.73,66.74,213.7a90.32,90.32,0,0,0,135.91,49.77A79.54,79.54,0,0,1,275.43,256a130.41,130.41,0,0,0,89.45,2.49c66.8-22.17,104.28-94.24,84.09-161.68A130.86,130.86,0,0,0,214.66,61.76C200.41,83.19,176.9,97,151.17,97.63Z"/><path class="cls-rain-3" d="M395.59,276.12h-4.44a68.4,68.4,0,0,0-83.74-65.87A80.06,80.06,0,0,0,152.68,223a64.31,64.31,0,0,0-8.32-.51A62.49,62.49,0,0,0,82.66,284a115.06,115.06,0,0,0-79.43,83l491.71-5.72C481.8,312.16,448.74,275.47,395.59,276.12Z"/><path class="cls-rain-4" d="M490.49,207.24l-3.66,0a56.37,56.37,0,0,0-69-54.29,66,66,0,0,0-127.48,10.53,48.88,48.88,0,0,0-6.84-.42,51.48,51.48,0,0,0-50.84,50.69,94.77,94.77,0,0,0-65.46,68.43l405.18-4.72C561.53,237,534.3,206.7,490.49,207.24Z"/><path class="cls-rain-5" d="M173.63,326.56a4.27,4.27,0,0,1-4.28-4.28V300.16a4.28,4.28,0,1,1,8.56,0v22.12A4.27,4.27,0,0,1,173.63,326.56Z"/><path class="cls-rain-5" d="M213.6,328a4.28,4.28,0,0,1-4.27-4.28V304.44a4.28,4.28,0,1,1,8.55-.42,2.94,2.94,0,0,1,0,.42v19.27A4.28,4.28,0,0,1,213.6,328Z"/><path class="cls-rain-5" d="M253,321a4.29,4.29,0,0,1-4.19-3.51L245.27,298a4.29,4.29,0,0,1,8.22-2.43,4.49,4.49,0,0,1,.16.89l3.54,19.41a4.25,4.25,0,0,1-3.41,5h0A4.77,4.77,0,0,1,253,321Z"/><path class="cls-rain-5" d="M287.59,323.79a4.27,4.27,0,0,1-4.26-4l-1.65-20.74a4.29,4.29,0,0,1,8.54-.65l1.6,20.73a4.29,4.29,0,0,1-3.94,4.6Z"/><path class="cls-rain-5" d="M324.8,332.27h-.12a4.29,4.29,0,0,1-4.19-4.39v0l.77-26.39a4.28,4.28,0,0,1,4.28-4.19h.13a4.26,4.26,0,0,1,4.19,4.35v.06l-.76,26.39A4.3,4.3,0,0,1,324.8,332.27Z"/><path class="cls-rain-5" d="M360.59,325.14a4.28,4.28,0,0,1-4.27-4.29V297.31a4.29,4.29,0,0,1,8.56-.43v24A4.29,4.29,0,0,1,360.59,325.14Z"/><path class="cls-rain-5" d="M177.46,383.68h-.35a4.27,4.27,0,0,1-3.92-4.6v0L175.41,352a4.28,4.28,0,1,1,8.55.49c0,.07,0,.14,0,.21l-2.22,27.11A4.31,4.31,0,0,1,177.46,383.68Z"/><path class="cls-rain-5" d="M209.3,372.23a4.28,4.28,0,0,1-4.26-3.92l-1.42-17.13a4.28,4.28,0,0,1,8.52-.92c0,.07,0,.14,0,.22l1.45,17.11a4.28,4.28,0,0,1-3.9,4.62h0Z"/><path class="cls-rain-5" d="M240.71,367.24a4.28,4.28,0,0,1-4.28-4.28V345.84a4.29,4.29,0,0,1,8.56-.43,3.08,3.08,0,0,1,0,.43V363a4.28,4.28,0,0,1-4.28,4.28Z"/><path class="cls-rain-5" d="M283,370.81a4.29,4.29,0,0,1-4.28-4.19l-.56-17.81a4.29,4.29,0,0,1,8.56-.26l.56,17.8a4.27,4.27,0,0,1-4.14,4.42h0Z"/><path class="cls-rain-5" d="M312.79,369.38a4.29,4.29,0,0,1-4.29-4.28h0V345.84a4.29,4.29,0,1,1,8.56-.43,3.08,3.08,0,0,1,0,.43V365.1A4.28,4.28,0,0,1,312.79,369.38Z"/><path class="cls-rain-5" d="M341.56,371.55H341a4.27,4.27,0,0,1-3.69-4.79h0l2.89-22.12a4.28,4.28,0,1,1,8.48,1.11l-2.89,22.11A4.28,4.28,0,0,1,341.56,371.55Z"/><path class="cls-rain-5" d="M373.2,376.54a4.28,4.28,0,0,1-4.26-3.94l-1.43-17.81a4.28,4.28,0,0,1,8.53-.69l1.44,17.81a4.28,4.28,0,0,1-3.93,4.6Z"/><path class="cls-rain-5" d="M170.78,425a4.28,4.28,0,0,1-4.28-4.28v-20a4.28,4.28,0,1,1,8.55-.42,2.94,2.94,0,0,1,0,.42v20A4.28,4.28,0,0,1,170.78,425Z"/><path class="cls-rain-5" d="M202.08,409.35a4.29,4.29,0,0,1-4.28-4.06L197.1,391a4.28,4.28,0,0,1,4.07-4.49h0a4.35,4.35,0,0,1,4.48,4.06l.71,14.28a4.29,4.29,0,0,1-4.06,4.49Z"/><path class="cls-rain-5" d="M229,422.91a4.28,4.28,0,0,1-4.28-4.19l-.59-21.4a4.27,4.27,0,0,1,4.16-4.4h.15a4.28,4.28,0,0,1,4.28,4.19l.59,21.41a4.27,4.27,0,0,1-4.16,4.39H229Z"/><path class="cls-rain-5" d="M256.41,417.87a4.28,4.28,0,0,1-4.28-4.28h0V399.35a4.29,4.29,0,0,1,8.56,0v14.33A4.28,4.28,0,0,1,256.41,417.87Z"/><path class="cls-rain-5" d="M286.1,417.92a4.28,4.28,0,0,1-4.28-4.19l-.57-20.7a4.29,4.29,0,0,1,4.17-4.4h0a4.19,4.19,0,0,1,4.38,4,1.34,1.34,0,0,1,0,.2l.57,20.7a4.28,4.28,0,0,1-4.14,4.39h-.16Z"/><path class="cls-rain-5" d="M314.93,425.75a4.28,4.28,0,0,1-4.29-4.28h0V400.06a4.29,4.29,0,0,1,8.57,0v21.4a4.28,4.28,0,0,1-4.27,4.29Z"/><path class="cls-rain-5" d="M342,412.2a4.28,4.28,0,0,1-4.28-4.28h0V392.2a4.29,4.29,0,0,1,8.57,0v15.72A4.29,4.29,0,0,1,342,412.2Z"/><path class="cls-rain-5" d="M374,432.89h-.09a4.29,4.29,0,0,1-4.19-4.38h0l.56-24.27a4.29,4.29,0,0,1,4.29-4.19h.09a4.27,4.27,0,0,1,4.19,4.35v0l-.56,24.27A4.27,4.27,0,0,1,374,432.89Z"/><path class="cls-rain-5" d="M184.74,467.87a4.26,4.26,0,0,1-4.27-4.19l-.55-18.56a4.29,4.29,0,1,1,8.57-.25l.54,18.56a4.29,4.29,0,0,1-4.16,4.41h0Z"/><path class="cls-rain-5" d="M206.46,451.45a4.29,4.29,0,0,1-4.29-4.29V430.75a4.29,4.29,0,1,1,8.57,0h0v16.44A4.29,4.29,0,0,1,206.46,451.45Z"/><path class="cls-rain-5" d="M240,467.86a4.27,4.27,0,0,1-4.27-4.27h0v-20.7a4.29,4.29,0,0,1,8.56,0v20.7a4.29,4.29,0,0,1-4.29,4.28Z"/><path class="cls-rain-5" d="M262.83,451.45a4.3,4.3,0,0,1-4.28-4.29V431.48a4.29,4.29,0,0,1,8.56,0v15.71A4.29,4.29,0,0,1,262.83,451.45Z"/><path class="cls-rain-5" d="M289.46,464.27a4.29,4.29,0,0,1-4.26-3.91l-1.62-18.53a4.28,4.28,0,0,1,8.52-.75l1.63,18.54a4.27,4.27,0,0,1-3.88,4.63h-.39Z"/><path class="cls-rain-5" d="M325.09,467.89a4.29,4.29,0,0,1-4.28-4L319.67,446a4.29,4.29,0,0,1,8.55-.55l1.14,17.86a4.29,4.29,0,0,1-4,4.55Z"/><path class="cls-rain-5" d="M348.33,451.46a4.29,4.29,0,0,1-4.28-4l-.69-12.13a4.29,4.29,0,0,1,4-4.51h0a4.32,4.32,0,0,1,4.51,4l.69,12.13a4.27,4.27,0,0,1-4,4.52h-.25Z"/><path class="cls-rain-5" d="M375.46,472.14h-.16a4.27,4.27,0,0,1-4.13-4.41h0l.56-16.42a4.28,4.28,0,0,1,8.55.29L379.73,468A4.29,4.29,0,0,1,375.46,472.14Z"/><path class="cls-rain-5" d="M166.79,507.83h-.13a4.31,4.31,0,0,1-4.19-4.4h0l.56-18.56a4.2,4.2,0,0,1,4.18-4.2h.23a4.26,4.26,0,0,1,4.19,4.35v.06l-.56,18.56A4.27,4.27,0,0,1,166.79,507.83Z"/><path class="cls-rain-5" d="M195.79,492.12a4.28,4.28,0,0,1-4.28-4.28v-10.7a4.29,4.29,0,0,1,8.57,0v10.7A4.29,4.29,0,0,1,195.79,492.12Z"/><path class="cls-rain-5" d="M221.32,500.7a4.3,4.3,0,0,1-4.28-4.11l-.71-16.41a4.29,4.29,0,0,1,8.56-.37l.71,16.41a4.28,4.28,0,0,1-4.09,4.46Z"/><path class="cls-rain-5" d="M251.31,504.26a4.28,4.28,0,0,1-4.28-4.05l-.69-12.85a4.29,4.29,0,0,1,8.53-.84c0,.13,0,.25,0,.38l.7,12.85a4.29,4.29,0,0,1-4,4.51Z"/><path class="cls-rain-5" d="M272.25,493.54a4.28,4.28,0,0,1-4.26-4l-.75-10a4.28,4.28,0,1,1,8.51-1c0,.11,0,.23,0,.34l.76,10a4.28,4.28,0,0,1-3.93,4.6h-.35Z"/><path class="cls-rain-5" d="M299.22,497.83a4.29,4.29,0,0,1-4.28-4.28V479.28a4.29,4.29,0,0,1,8.57,0v14.27A4.29,4.29,0,0,1,299.22,497.83Z"/><path class="cls-rain-5" d="M329.13,502.12a4.28,4.28,0,0,1-4.25-3.81l-1.41-12.85a4.29,4.29,0,0,1,8.52-.94l1.4,12.86a4.28,4.28,0,0,1-3.79,4.72Z"/><path class="cls-rain-5" d="M353.89,504.26a4.27,4.27,0,0,1-4.27-4.19l-.58-20a4.29,4.29,0,0,1,8.57-.24l.56,20a4.26,4.26,0,0,1-4.14,4.39h0Z"/><path class="cls-rain-5" d="M377.74,510a4.27,4.27,0,0,1-4.27-4.06l-.66-13.55a4.28,4.28,0,0,1,4.05-4.51h0a4.34,4.34,0,0,1,4.5,4.06l.72,13.55A4.28,4.28,0,0,1,378,510h-.28Z"/><path class="cls-rain-5" d="M179.21,549.92h-.09a4.28,4.28,0,0,1-4.19-4.37h0l.48-21.42a4.19,4.19,0,0,1,4.19-4.2h.19a4.26,4.26,0,0,1,4.19,4.33v0l-.48,21.41A4.28,4.28,0,0,1,179.21,549.92Z"/><path class="cls-rain-5" d="M205.88,533.52h-.16a4.27,4.27,0,0,1-4.12-4.43l.71-19.27a4.17,4.17,0,0,1,4.25-4.12h.18a4.29,4.29,0,0,1,4.13,4.43l-.72,19.27A4.28,4.28,0,0,1,205.88,533.52Z"/><path class="cls-rain-5" d="M232.22,551.36H232a4.28,4.28,0,0,1-4.06-4.49h0L229.31,519A4.35,4.35,0,0,1,233.8,515a4.3,4.3,0,0,1,4.07,4.49l-1.4,27.83A4.28,4.28,0,0,1,232.22,551.36Z"/><path class="cls-rain-5" d="M268.55,537.79a4.28,4.28,0,0,1-4.29-4.28h0V517.1a4.29,4.29,0,0,1,8.56-.43,3.08,3.08,0,0,1,0,.43v16.41A4.28,4.28,0,0,1,268.55,537.79Z"/><path class="cls-rain-5" d="M298.5,545.65a4.27,4.27,0,0,1-4.25-3.89l-2.39-25.66a4.29,4.29,0,0,1,8.54-.79h0L302.78,541a4.3,4.3,0,0,1-3.87,4.66Z"/><path class="cls-rain-5" d="M323.49,548.5a4.28,4.28,0,0,1-4.28-4.28h0v-20a4.29,4.29,0,1,1,8.56-.42v20.41A4.28,4.28,0,0,1,323.49,548.5Z"/><path class="cls-rain-5" d="M362,552.09a4.27,4.27,0,0,1-4.28-4.12l-1-26.41a4.29,4.29,0,0,1,8.55-.6c0,.1,0,.19,0,.29l1,26.41a4.28,4.28,0,0,1-4.12,4.44Z"/></svg>