<?xml version="1.0" encoding="iso-8859-1"?>
<!-- Generator: Adobe Illustrator 19.0.0, SVG Export Plug-In . SVG Version: 6.00 Build 0)  -->
<svg version="1.1" id="Layer_1" xmlns="http://www.w3.org/2000/svg" xmlns:xlink="http://www.w3.org/1999/xlink" x="0px" y="0px"
	 viewBox="0 0 511.999 511.999" style="enable-background:new 0 0 511.999 511.999;" xml:space="preserve">
<path style="fill:#8AC6B6;" d="M445.433,244.558c0,120.345-97.033,217.904-216.728,217.904S11.977,364.903,11.977,244.558
	S109.01,26.654,228.705,26.654S445.433,124.213,445.433,244.558z"/>
<path style="fill:#9FD7C5;" d="M309.303,244.558c0,120.345-36.086,217.904-80.598,217.904s-80.598-97.559-80.598-217.904
	s36.086-217.904,80.598-217.904S309.303,124.213,309.303,244.558z"/>
<path style="fill:#86BAA8;" d="M225.678,152.304c-61.32,0-119.7-12.56-172.732-35.223c-25.766,35.844-40.968,79.87-40.968,127.476
	c0,120.345,97.033,217.904,216.728,217.904s216.728-97.559,216.728-217.904c0-48.499-15.771-93.287-42.423-129.489
	C348.76,138.993,288.777,152.304,225.678,152.304z"/>
<path style="fill:#74A58E;" d="M17.146,292.014c21.547,97.522,108.076,170.448,211.559,170.448
	c40.084,0,77.618-10.955,109.825-30.028c-6.403-7.925-11.175-13.751-12.503-15.222c59.09-44.507,97.365-115.46,97.468-195.473
	c-97.443-0.212-180.608,55.245-219.514,138.404C198.611,359.931,86.657,371.506,17.146,292.014z"/>
<path style="fill:#BAEEC3;" d="M309.303,244.558c0-35.497-3.142-69.006-8.711-98.619c-24.346,4.183-49.375,6.366-74.917,6.366
	c-23.491,0-46.545-1.858-69.036-5.407c-5.457,29.378-8.534,62.545-8.534,97.66c0,120.345,36.086,217.904,80.598,217.904
	S309.303,364.903,309.303,244.558z"/>
<path style="fill:#63A097;" d="M225.678,266.659c-73.967,0-145.587-10.034-213.587-28.792c-0.069,2.222-0.113,4.451-0.113,6.691
	c0,120.345,97.033,217.904,216.728,217.904s216.728-97.559,216.728-217.904c0-2.799-0.057-5.586-0.164-8.359
	C375.486,256.038,301.822,266.659,225.678,266.659z"/>
<path style="fill:#9FDDAA;" d="M228.705,462.462c43.902,0,79.604-94.9,80.576-212.959c-45.931,24.181-82.932,62.83-105.3,110.642
	c-2.031-0.081-19.316,1.524-43.779-0.746C174.422,421.264,199.782,462.462,228.705,462.462z"/>
<path style="fill:#568C82;" d="M228.705,462.462c40.084,0,77.618-10.955,109.825-30.028c-6.403-7.925-11.175-13.751-12.503-15.222
	c53.986-40.662,90.578-103.404,96.578-174.955c-44.65,11.282-90.79,18.823-138.07,22.256c-34.486,23.911-62.361,56.74-80.555,95.63
	c-5.37-0.213-117.324,11.362-186.834-68.13C38.693,389.536,125.222,462.462,228.705,462.462z"/>
<path style="fill:#9FD7C5;" d="M309.035,262.366c-27.401,2.833-55.209,4.293-83.357,4.293c-26.074,0-51.849-1.272-77.282-3.709
	c3.455,111.736,38.088,199.512,80.31,199.512C271.001,462.462,305.683,374.381,309.035,262.366z"/>
<path style="fill:#7BAD9A;" d="M228.705,462.462c42.296,0,76.977-88.082,80.33-200.096c-8.127,0.84-16.292,1.544-24.488,2.14
	c-34.492,23.913-62.371,56.744-80.567,95.637c-2.031-0.08-19.315,1.524-43.778-0.746
	C174.421,421.265,199.782,462.462,228.705,462.462z"/>
<path style="fill:#356D6B;" d="M225.678,359.565c-55.716,0-108.772,11.372-156.989,31.906
	c39.629,43.61,96.633,70.991,160.017,70.991c62.464,0,118.744-26.582,158.293-69.095
	C337.633,371.649,283.07,359.565,225.678,359.565z"/>
<path style="fill:#6B9984;" d="M295.707,365.701c-22.741-4.011-46.136-6.136-70.029-6.136c-21.861,0-43.304,1.775-64.215,5.143
	c14.427,58.901,39.155,97.752,67.243,97.752C256.635,462.462,281.244,424.048,295.707,365.701z"/>
<path style="fill:#729800;" d="M472.829,215.675c-0.17,135.464-109.468,245.044-244.124,244.75
	C228.873,324.961,338.167,215.383,472.829,215.675L472.829,215.675z"/>
<path style="fill:#A5CD27;" d="M496.737,388.517c-53.703,94.458-173.316,127.219-267.161,73.17
	C283.275,367.229,402.886,334.468,496.737,388.517L496.737,388.517z"/>
<path d="M327.609,498.433c-35.314,0-71.069-8.888-103.865-27.608c-0.418-0.228-0.82-0.481-1.204-0.757
	c-0.92-0.658-1.72-1.43-2.39-2.287c-0.003-0.004-0.007-0.008-0.009-0.012c-0.001-0.001-0.003-0.003-0.003-0.004
	c-0.445-0.568-0.84-1.184-1.178-1.839c-0.602-1.164-1.014-2.442-1.194-3.795c-0.083-0.615-0.117-1.229-0.104-1.835
	c0.153-139.457,113.655-252.872,253.148-252.872c6.451,0,11.68,5.229,11.68,11.68c0,37.225-7.902,73.093-23.487,106.606
	c-2.721,5.849-9.667,8.386-15.516,5.666c-5.849-2.72-8.386-9.667-5.666-15.516c12.461-26.794,19.508-55.255,21.007-84.767
	c-107.232,5.539-195.268,84.926-214.085,188.163c64.689-72.592,173.694-92.727,261.378-42.557c2.688,1.539,4.656,4.081,5.47,7.072
	c0.812,2.989,0.406,6.179-1.133,8.868C471.676,460.414,400.611,498.433,327.609,498.433z M263.063,463.503
	c80.427,29.831,172.665,0.698,220.794-72.183c-78.421-38.445-172.704-16.823-226.927,49.642l74.403-20.244
	c6.229-1.699,12.644,1.98,14.338,8.203c1.694,6.224-1.979,12.643-8.203,14.337L263.063,463.503z M176.347,465.757
	c-0.938,0-1.892-0.113-2.843-0.352c-48.717-12.189-92.8-40.712-124.128-80.317C17.074,344.254,0,295.091,0,242.914
	C0,116.451,102.882,13.566,229.342,13.566c0.009,0,0.018,0,0.027,0c97.532,0.008,184.578,61.861,216.623,153.921
	c2.121,6.092-1.099,12.749-7.191,14.87c-6.093,2.117-12.749-1.099-14.871-7.192c-5.879-16.892-13.823-32.653-23.487-47.038
	c-0.029,0.013-0.057,0.027-0.086,0.04c-25.275,11.702-53.654,20.777-83.68,26.929c2.893,17.717,4.913,36.422,5.971,55.676
	c0.353,6.441-4.58,11.95-11.022,12.303c-6.412,0.365-11.949-4.581-12.302-11.022c-1.041-18.936-2.969-36.602-5.603-52.874
	c-23.064,3.494-46.848,5.303-70.749,5.303c-19.716,0-39.211-1.263-58.284-3.745c-3.902,24.69-6.161,52.324-6.161,82.175
	c0,2.433,0.016,4.859,0.045,7.277c25.349,2.191,51.157,3.305,77.098,3.305c2.233,0,4.464-0.009,6.686-0.026c0.03,0,0.061,0,0.091,0
	c6.41,0,11.628,5.17,11.677,11.592c0.049,6.45-5.139,11.719-11.59,11.768c-2.281,0.018-4.571,0.027-6.864,0.027
	c-25.657,0-51.192-1.065-76.321-3.159c1.492,27.563,4.986,53.739,10.297,77.352c8.186-1.078,16.435-1.906,24.713-2.476
	c6.451-0.441,12.012,4.414,12.456,10.848c0.444,6.436-4.414,12.012-10.848,12.456c-6.829,0.471-13.631,1.126-20.389,1.964
	c2.201,7.366,4.602,14.392,7.196,21.037c2.346,6.009-0.622,12.782-6.63,15.128c-6.01,2.348-12.782-0.622-15.128-6.63
	c-3.18-8.14-6.087-16.802-8.709-25.911c-21.588,4.062-42.479,9.981-62.026,17.602c24.572,22.464,54.827,39.155,88.894,47.679
	c6.258,1.566,10.062,7.907,8.495,14.167C186.341,462.215,181.579,465.757,176.347,465.757z M23.522,251.139
	c1.867,47.513,19.851,91.464,49.25,125.829c23.019-9.748,47.941-17.223,73.791-22.188c-5.647-25.557-9.288-53.776-10.714-83.353
	C96.784,267.127,58.966,260.317,23.522,251.139z M23.961,227.099c34.958,9.366,72.424,16.334,111.226,20.753
	c-0.013-1.642-0.021-3.29-0.021-4.937c0-29.892,2.232-58.931,6.489-85.802c-30.058-5.574-58.789-14.255-85.336-25.863
	C38.174,159.272,26.642,191.973,23.961,227.099z M168.965,137.741c17.667,2.243,35.732,3.383,54.006,3.383
	c22.184,0,44.573-1.725,66.356-5.007c-13.845-62.671-38.546-99.191-59.984-99.191C206.748,36.926,182.412,75.426,168.965,137.741z
	 M70.499,111.909c23.566,9.868,48.922,17.327,75.402,22.237c3.792-17.824,8.543-34.4,14.185-49.287
	c6.485-17.111,13.965-31.363,22.204-42.511C137.748,52.794,98.731,77.74,70.499,111.909z M276.576,42.41
	c6.02,8.22,11.989,18.64,17.699,31.785c7.255,16.702,13.326,36.288,18.022,57.835c26.449-5.44,51.516-13.206,73.646-22.98
	C357.649,76.013,319.356,52.495,276.576,42.41z"/>
<g>
</g>
<g>
</g>
<g>
</g>
<g>
</g>
<g>
</g>
<g>
</g>
<g>
</g>
<g>
</g>
<g>
</g>
<g>
</g>
<g>
</g>
<g>
</g>
<g>
</g>
<g>
</g>
<g>
</g>
</svg>
